<svg width="750" height="500" viewBox="0 0 750 500" fill="none" xmlns="http://www.w3.org/2000/svg">
<path d="M109.14 104.09H620C621.787 104.09 623.502 104.8 624.766 106.064C626.03 107.328 626.74 109.042 626.74 110.83V437C626.74 440.864 625.205 444.57 622.472 447.302C619.74 450.035 616.034 451.57 612.17 451.57H116C114.083 451.575 112.184 451.202 110.412 450.472C108.639 449.742 107.028 448.67 105.671 447.317C104.314 445.963 103.237 444.355 102.503 442.585C101.768 440.814 101.39 438.917 101.39 437V111.85C101.388 110.831 101.588 109.822 101.977 108.881C102.366 107.94 102.936 107.084 103.656 106.363C104.376 105.643 105.231 105.071 106.172 104.681C107.112 104.291 108.121 104.09 109.14 104.09V104.09Z" fill="#455064"/>
<path d="M79.4199 425.83H648.63V442.5C648.63 446.139 647.184 449.629 644.611 452.202C642.038 454.775 638.549 456.22 634.91 456.22H93.1399C89.5012 456.22 86.0114 454.775 83.4384 452.202C80.8654 449.629 79.4199 446.139 79.4199 442.5V425.83Z" fill="#455064"/>
<path d="M611.19 117.9H115.49V411.3H611.19V117.9Z" fill="#E0E0E0"/>
<path d="M312.29 425.83L319.35 437.06H418.74L425.3 425.83H312.29Z" fill="#30303F"/>
<path d="M597.68 134.9H130.2V411.3H597.68V134.9Z" fill="#171723"/>
<path d="M166.07 403.18C165.83 403.18 165.63 344.32 165.63 271.72C165.63 199.12 165.83 140.23 166.07 140.23C166.31 140.23 166.51 199.09 166.51 271.72C166.51 344.35 166.31 403.18 166.07 403.18Z" fill="#E0E0E0"/>
<path d="M156.64 164.07C156.64 164.31 153.24 164.51 149.05 164.51C144.86 164.51 141.45 164.31 141.45 164.07C141.45 163.83 144.85 163.63 149.05 163.63C153.25 163.63 156.64 163.83 156.64 164.07Z" fill="#E0E0E0"/>
<path d="M157.22 149.15C157.22 149.39 153.82 149.59 149.63 149.59C145.44 149.59 142.04 149.39 142.04 149.15C142.04 148.91 145.44 148.71 149.63 148.71C153.82 148.71 157.22 148.91 157.22 149.15Z" fill="#E0E0E0"/>
<path d="M156.64 180.15C156.64 180.39 153.24 180.59 149.05 180.59C144.86 180.59 141.45 180.39 141.45 180.15C141.45 179.91 144.85 179.71 149.05 179.71C153.25 179.71 156.64 179.91 156.64 180.15Z" fill="#E0E0E0"/>
<path d="M156.64 196.23C156.64 196.48 153.24 196.67 149.05 196.67C144.86 196.67 141.45 196.48 141.45 196.23C141.45 195.98 144.85 195.8 149.05 195.8C153.25 195.8 156.64 196 156.64 196.23Z" fill="#E0E0E0"/>
<path d="M156.64 212.32C156.64 212.56 153.24 212.76 149.05 212.76C144.86 212.76 141.45 212.56 141.45 212.32C141.45 212.08 144.85 211.88 149.05 211.88C153.25 211.88 156.64 212.07 156.64 212.32Z" fill="#E0E0E0"/>
<path d="M156.64 228.4C156.64 228.64 153.24 228.84 149.05 228.84C144.86 228.84 141.45 228.64 141.45 228.4C141.45 228.16 144.85 227.96 149.05 227.96C153.25 227.96 156.64 228.16 156.64 228.4Z" fill="#E0E0E0"/>
<path d="M156.64 244.48C156.64 244.72 153.24 244.92 149.05 244.92C144.86 244.92 141.45 244.72 141.45 244.48C141.45 244.24 144.85 244.04 149.05 244.04C153.25 244.04 156.64 244.24 156.64 244.48Z" fill="#E0E0E0"/>
<path d="M156.64 260.56C156.64 260.81 153.24 261 149.05 261C144.86 261 141.45 260.81 141.45 260.56C141.45 260.31 144.85 260.13 149.05 260.13C153.25 260.13 156.64 260.32 156.64 260.56Z" fill="#E0E0E0"/>
<path d="M156.64 276.65C156.64 276.89 153.24 277.08 149.05 277.08C144.86 277.08 141.45 276.89 141.45 276.65C141.45 276.41 144.85 276.21 149.05 276.21C153.25 276.21 156.64 276.4 156.64 276.65Z" fill="#E0E0E0"/>
<path d="M156.64 292.73C156.64 292.97 153.24 293.17 149.05 293.17C144.86 293.17 141.45 292.97 141.45 292.73C141.45 292.49 144.85 292.29 149.05 292.29C153.25 292.29 156.64 292.49 156.64 292.73Z" fill="#E0E0E0"/>
<path d="M156.64 308.81C156.64 309.05 153.24 309.25 149.05 309.25C144.86 309.25 141.45 309.05 141.45 308.81C141.45 308.57 144.85 308.37 149.05 308.37C153.25 308.37 156.64 308.57 156.64 308.81Z" fill="#E0E0E0"/>
<path d="M156.64 324.89C156.64 325.14 153.24 325.33 149.05 325.33C144.86 325.33 141.45 325.14 141.45 324.89C141.45 324.64 144.85 324.46 149.05 324.46C153.25 324.46 156.64 324.65 156.64 324.89Z" fill="#E0E0E0"/>
<path d="M156.64 341C156.64 341.24 153.24 341.43 149.05 341.43C144.86 341.43 141.45 341.24 141.45 341C141.45 340.76 144.85 340.56 149.05 340.56C153.25 340.56 156.64 340.73 156.64 341Z" fill="#E0E0E0"/>
<path d="M156.64 357.06C156.64 357.3 153.24 357.5 149.05 357.5C144.86 357.5 141.45 357.3 141.45 357.06C141.45 356.82 144.85 356.62 149.05 356.62C153.25 356.62 156.64 356.82 156.64 357.06Z" fill="#E0E0E0"/>
<path d="M156.64 373.14C156.64 373.38 153.24 373.58 149.05 373.58C144.86 373.58 141.45 373.38 141.45 373.14C141.45 372.9 144.85 372.7 149.05 372.7C153.25 372.7 156.64 372.9 156.64 373.14Z" fill="#E0E0E0"/>
<path d="M156.64 389.22C156.64 389.47 153.24 389.66 149.05 389.66C144.86 389.66 141.45 389.47 141.45 389.22C141.45 388.97 144.85 388.78 149.05 388.78C153.25 388.78 156.64 389 156.64 389.22Z" fill="#E0E0E0"/>
<path d="M217.51 163.12C217.51 163.36 208.69 163.56 197.81 163.56C186.93 163.56 178.1 163.36 178.1 163.12C178.1 162.88 186.92 162.68 197.81 162.68C208.7 162.68 217.51 162.88 217.51 163.12Z" fill="#364FAB"/>
<path d="M217.51 389.22C217.51 389.47 208.69 389.66 197.81 389.66C186.93 389.66 178.1 389.47 178.1 389.22C178.1 388.97 186.92 388.78 197.81 388.78C208.7 388.78 217.51 389 217.51 389.22Z" fill="#364FAB"/>
<path d="M272.4 196.23C272.4 196.48 255.89 196.67 235.53 196.67C215.17 196.67 198.66 196.48 198.66 196.23C198.66 195.98 215.16 195.8 235.53 195.8C255.9 195.8 272.4 196 272.4 196.23Z" fill="#364FAB"/>
<path d="M357.68 196.23C357.68 196.48 341.17 196.67 320.81 196.67C300.45 196.67 283.93 196.48 283.93 196.23C283.93 195.98 300.44 195.8 320.81 195.8C341.18 195.8 357.68 196 357.68 196.23Z" fill="#E0E0E0"/>
<path d="M325.09 212.32C325.09 212.56 300.76 212.76 270.75 212.76C240.74 212.76 216.41 212.56 216.41 212.32C216.41 212.08 240.73 211.88 270.75 211.88C300.77 211.88 325.09 212.07 325.09 212.32Z" fill="#E0E0E0"/>
<path d="M325.09 228.4C325.09 228.64 300.76 228.84 270.75 228.84C240.74 228.84 216.41 228.64 216.41 228.4C216.41 228.16 240.73 227.96 270.75 227.96C300.77 227.96 325.09 228.16 325.09 228.4Z" fill="#E0E0E0"/>
<path d="M399.9 276.65C399.9 276.89 375.56 277.08 345.56 277.08C315.56 277.08 291.21 276.89 291.21 276.65C291.21 276.41 315.54 276.21 345.56 276.21C375.58 276.21 399.9 276.4 399.9 276.65Z" fill="#E0E0E0"/>
<path d="M367.61 244.48C367.61 244.72 343.28 244.92 313.28 244.92C283.28 244.92 258.93 244.72 258.93 244.48C258.93 244.24 283.26 244.04 313.28 244.04C343.3 244.04 367.61 244.24 367.61 244.48Z" fill="#E0E0E0"/>
<path d="M500.42 244.48C500.42 244.72 476.09 244.92 446.09 244.92C416.09 244.92 391.74 244.72 391.74 244.48C391.74 244.24 416.07 244.04 446.09 244.04C476.11 244.04 500.42 244.24 500.42 244.48Z" fill="#E0E0E0"/>
<path d="M454.24 212.32C454.24 212.56 429.9 212.76 399.9 212.76C369.9 212.76 345.56 212.56 345.56 212.32C345.56 212.08 369.88 211.88 399.9 211.88C429.92 211.88 454.24 212.07 454.24 212.32Z" fill="#364FAB"/>
<path d="M529.31 276.65C529.31 276.89 504.98 277.08 474.97 277.08C444.96 277.08 420.63 276.89 420.63 276.65C420.63 276.41 444.95 276.21 474.97 276.21C504.99 276.21 529.31 276.4 529.31 276.65Z" fill="#364FAB"/>
<path d="M514.32 228.4C514.32 228.64 476.54 228.84 429.94 228.84C383.34 228.84 345.56 228.64 345.56 228.4C345.56 228.16 383.33 227.96 429.94 227.96C476.55 227.96 514.32 228.16 514.32 228.4Z" fill="#455064"/>
<path d="M217.51 180.15C217.51 180.39 208.69 180.59 197.81 180.59C186.93 180.59 178.1 180.39 178.1 180.15C178.1 179.91 186.92 179.71 197.81 179.71C208.7 179.71 217.51 179.91 217.51 180.15Z" fill="#364FAB"/>
<path d="M217.51 373.14C217.51 373.38 208.69 373.58 197.81 373.58C186.93 373.58 178.1 373.38 178.1 373.14C178.1 372.9 186.92 372.7 197.81 372.7C208.7 372.7 217.51 372.9 217.51 373.14Z" fill="#364FAB"/>
<path d="M237 244.48C237 244.72 228.18 244.92 217.29 244.92C206.4 244.92 197.58 244.72 197.58 244.48C197.58 244.24 206.41 244.04 217.29 244.04C228.17 244.04 237 244.24 237 244.48Z" fill="#364FAB"/>
<path d="M552.93 244.48C552.93 244.72 544.11 244.92 533.23 244.92C522.35 244.92 513.52 244.72 513.52 244.48C513.52 244.24 522.34 244.04 533.23 244.04C544.12 244.04 552.93 244.24 552.93 244.48Z" fill="#364FAB"/>
<path d="M272.4 308.72C272.4 308.96 255.89 309.16 235.53 309.16C215.17 309.16 198.66 308.96 198.66 308.72C198.66 308.48 215.16 308.28 235.53 308.28C255.9 308.28 272.4 308.47 272.4 308.72Z" fill="#364FAB"/>
<path d="M357.68 308.72C357.68 308.96 341.17 309.16 320.81 309.16C300.45 309.16 283.93 308.96 283.93 308.72C283.93 308.48 300.44 308.28 320.81 308.28C341.18 308.28 357.68 308.47 357.68 308.72Z" fill="#E0E0E0"/>
<path d="M325.09 324.8C325.09 325.04 300.76 325.24 270.75 325.24C240.74 325.24 216.41 325.04 216.41 324.8C216.41 324.56 240.73 324.36 270.75 324.36C300.77 324.36 325.09 324.56 325.09 324.8Z" fill="#E0E0E0"/>
<path d="M325.09 340.88C325.09 341.12 300.76 341.32 270.75 341.32C240.74 341.32 216.41 341.12 216.41 340.88C216.41 340.64 240.73 340.44 270.75 340.44C300.77 340.44 325.09 340.64 325.09 340.88Z" fill="#E0E0E0"/>
<path d="M367.61 357C367.61 357.25 343.28 357.44 313.28 357.44C283.28 357.44 258.93 357.25 258.93 357C258.93 356.75 283.26 356.57 313.28 356.57C343.3 356.57 367.61 356.72 367.61 357Z" fill="#E0E0E0"/>
<path d="M500.42 357C500.42 357.25 476.09 357.44 446.09 357.44C416.09 357.44 391.74 357.25 391.74 357C391.74 356.75 416.07 356.57 446.09 356.57C476.11 356.57 500.42 356.72 500.42 357Z" fill="#E0E0E0"/>
<path d="M454.24 324.8C454.24 325.04 429.9 325.24 399.9 325.24C369.9 325.24 345.56 325.04 345.56 324.8C345.56 324.56 369.88 324.36 399.9 324.36C429.92 324.36 454.24 324.56 454.24 324.8Z" fill="#364FAB"/>
<path d="M514.32 340.88C514.32 341.12 476.54 341.32 429.94 341.32C383.34 341.32 345.56 341.12 345.56 340.88C345.56 340.64 383.33 340.44 429.94 340.44C476.55 340.44 514.32 340.64 514.32 340.88Z" fill="#455064"/>
<path d="M237 357C237 357.25 228.18 357.44 217.29 357.44C206.4 357.44 197.58 357.25 197.58 357C197.58 356.75 206.41 356.57 217.29 356.57C228.17 356.57 237 356.72 237 357Z" fill="#364FAB"/>
<path d="M552.93 357C552.93 357.25 544.11 357.44 533.23 357.44C522.35 357.44 513.52 357.25 513.52 357C513.52 356.75 522.34 356.57 533.23 356.57C544.12 356.57 552.93 356.72 552.93 357Z" fill="#364FAB"/>
<path d="M563.44 436C563.44 436.14 462.8 436.26 338.68 436.26C214.56 436.26 113.9 436.12 113.9 436C113.9 435.88 214.52 435.74 338.68 435.74C462.84 435.74 563.44 435.84 563.44 436Z" fill="#30303F"/>
<path d="M97.0701 347.83C90.0709 340.829 81.3706 335.769 71.824 333.148C62.2774 330.526 52.2131 330.434 42.6201 332.88C58.8734 343.955 78.0531 349.945 97.7201 350.09" fill="#364FAB"/>
<path d="M78.6001 282.43C80.8701 266.38 74.6001 248.33 62.6001 236.67C62.2101 252.57 68.9201 270.46 78.6001 282.43Z" fill="#364FAB"/>
<path d="M88.2104 312.74C79.5329 296.257 65.7182 283.054 48.8604 275.13C51.4954 284.368 56.5437 292.737 63.4861 299.377C70.4284 306.017 79.0142 310.688 88.3604 312.91" fill="#364FAB"/>
<path d="M90.2002 318.58C80.5102 318.86 70.7002 318.52 61.3302 316.04C51.9602 313.56 43.0002 308.79 36.7402 301.37C55.7242 301.429 74.2687 307.089 90.0502 317.64" fill="#364FAB"/>
<path d="M85.2803 299.32C90.2003 280.88 98.2803 268.13 112.81 257.8C113.921 266.866 111.758 276.03 106.71 283.642C101.663 291.254 94.0634 296.814 85.2803 299.32" fill="#364FAB"/>
<path d="M121.86 331.12C121.897 325.741 120.342 320.471 117.392 315.973C114.442 311.475 110.228 307.95 105.28 305.84C106.09 315.36 113.57 326.37 121.86 331.12Z" fill="#364FAB"/>
<path d="M126.49 315.57C127.166 307.851 130.032 300.485 134.751 294.34C139.471 288.194 145.847 283.525 153.13 280.88C149.78 296.29 140.88 309.12 126.49 315.57Z" fill="#364FAB"/>
<path d="M119.51 343.16C122.93 338.27 128.51 335.23 134.28 333.72C140.05 332.21 146.08 332.07 152.04 331.95C147.979 336.356 143.013 339.832 137.483 342.138C131.952 344.444 125.988 345.526 120 345.31" fill="#364FAB"/>
<path d="M112.59 382.45C123.466 379.094 135.205 379.936 145.49 384.811C155.775 389.685 163.86 398.237 168.15 408.78C148 405 128.05 396 112.59 382.45Z" fill="#364FAB"/>
<path d="M90.44 368.8C93.79 378.71 93.14 390.69 85.69 399.23C84.2052 394.119 83.8611 388.745 84.6819 383.487C85.5027 378.229 87.4683 373.215 90.44 368.8" fill="#364FAB"/>
<path d="M77.34 363.29C76.7998 369.678 74.621 375.82 71.0142 381.121C67.4074 386.421 62.4944 390.702 56.75 393.55C56.4828 393.72 56.1837 393.835 55.8708 393.887C55.558 393.938 55.2379 393.926 54.93 393.85C54.02 393.48 53.93 392.24 54.05 391.26C55.51 378.57 64.92 366.26 77.34 363.26" fill="#364FAB"/>
<path d="M68.7901 362C65.9452 365.074 62.4992 367.53 58.6658 369.217C54.8323 370.904 50.6932 371.786 46.505 371.808C42.3168 371.829 38.1688 370.99 34.3182 369.343C30.4677 367.695 26.9965 365.274 24.1201 362.23C38.3201 360.68 54.7001 359.64 68.7901 362Z" fill="#364FAB"/>
<path d="M66.6602 248.49C66.6602 248.49 66.6602 248.64 66.7902 248.91L67.2302 250.11C67.6302 251.19 68.2302 252.73 68.9402 254.71C69.6502 256.69 70.5902 259.15 71.6102 262L73.2502 266.56L75.0002 271.69C77.5202 278.88 80.3102 287.51 83.3302 297.12C86.3502 306.73 89.4002 317.37 92.4602 328.59C95.5202 339.81 98.1502 350.59 100.46 360.37C102.77 370.15 104.58 379.06 105.95 386.56C106.303 388.433 106.637 390.213 106.95 391.9C107.263 393.586 107.533 395.176 107.76 396.67C108.27 399.67 108.71 402.22 109.01 404.33C109.31 406.44 109.58 408.04 109.75 409.18C109.843 409.706 109.913 410.126 109.96 410.44C109.979 410.585 110.009 410.729 110.05 410.87C110.063 410.723 110.063 410.576 110.05 410.43C110.05 410.12 109.96 409.7 109.89 409.17C109.74 408.03 109.53 406.39 109.25 404.3C108.97 402.21 108.58 399.61 108.09 396.62C107.85 395.13 107.59 393.53 107.32 391.84C107.05 390.15 106.69 388.36 106.32 386.49C104.99 378.98 103.13 370.1 100.94 360.26C98.7502 350.42 96.0002 339.68 93.0002 328.44C90.0002 317.2 86.8202 306.6 83.8302 297C80.8402 287.4 77.9502 278.77 75.3902 271.6C74.7235 269.8 74.1202 268.09 73.5802 266.47L71.8902 261.92C70.8902 259.08 69.8902 256.64 69.1402 254.66C68.3902 252.68 67.7502 251.17 67.3302 250.1C67.1202 249.6 66.9602 249.21 66.8502 248.92C66.7982 248.772 66.7346 248.628 66.6602 248.49V248.49Z" fill="#263238"/>
<path d="M144.66 289.11C144.66 289.11 144.57 289.18 144.41 289.34L143.73 290.05C143.14 290.68 142.28 291.63 141.21 292.88C138.165 296.385 135.371 300.101 132.85 304C129.086 309.803 126.144 316.099 124.11 322.71C121.76 330.15 120.31 338.61 118.86 347.46C115.98 365.16 112.43 381.02 109.86 392.46C108.57 398.17 107.52 402.8 106.78 406.04C106.43 407.61 106.16 408.85 105.97 409.73C105.88 410.13 105.82 410.45 105.77 410.73C105.752 410.839 105.752 410.951 105.77 411.06C105.77 411.06 105.77 410.95 105.87 410.74C105.97 410.53 106.02 410.18 106.12 409.79L107.04 406.12C107.81 402.88 108.92 398.27 110.28 392.57C112.94 381.12 116.55 365.27 119.44 347.57C120.89 338.72 122.32 330.28 124.62 322.87C126.624 316.295 129.513 310.024 133.21 304.23C135.702 300.319 138.441 296.572 141.41 293.01C142.41 291.75 143.29 290.78 143.85 290.13L144.49 289.38L144.66 289.11Z" fill="#263238"/>
<path d="M64.5498 361.4C64.7144 361.455 64.8863 361.485 65.0598 361.49L66.5298 361.66L67.5898 361.76L68.8498 361.95C69.7498 362.08 70.7798 362.22 71.8498 362.46L73.6198 362.82L75.5098 363.29C76.8198 363.59 78.1798 364.07 79.6298 364.51C82.7321 365.6 85.7418 366.937 88.6298 368.51C91.4895 370.114 94.1886 371.989 96.6898 374.11C97.7751 375.051 98.8067 376.053 99.7798 377.11C100.649 378.002 101.467 378.944 102.23 379.93C102.877 380.731 103.481 381.565 104.04 382.43C104.498 383.067 104.913 383.736 105.28 384.43L106.03 385.7C106.21 385.99 106.31 386.14 106.33 386.13C106.289 385.963 106.222 385.804 106.13 385.66L105.46 384.33C105.12 383.635 104.729 382.966 104.29 382.33C103.754 381.443 103.166 380.588 102.53 379.77C101.785 378.753 100.977 377.784 100.11 376.87C99.1336 375.816 98.1021 374.814 97.0198 373.87C94.5253 371.644 91.8114 369.677 88.9198 368C86.0065 366.408 82.962 365.07 79.8198 364C78.3598 363.58 76.9898 363.11 75.6598 362.83L73.7498 362.38L71.9998 362.09C70.8698 361.86 69.8298 361.75 68.9198 361.65L67.6598 361.5L66.5898 361.45L65.1098 361.39C64.9237 361.365 64.7349 361.369 64.5498 361.4V361.4Z" fill="#263238"/>
<path d="M60.5 289.45C60.7978 289.817 61.1329 290.152 61.5 290.45L64.45 293C66.93 295.12 70.39 298 74.22 301.21C78.05 304.42 81.56 307.21 84.1 309.29L87.1 311.7C87.4619 312.006 87.8501 312.281 88.26 312.52C87.9598 312.155 87.6249 311.82 87.26 311.52L84.34 309C81.86 306.88 78.41 304 74.57 300.8C70.73 297.6 67.24 294.8 64.7 292.72L61.7 290.31C61.3317 289.981 60.9294 289.693 60.5 289.45V289.45Z" fill="#263238"/>
<path d="M57 308.23C57 308.38 64.42 310.7 73.65 313.43C82.88 316.16 90.42 318.26 90.46 318.12C90.5 317.98 83.05 315.64 73.81 312.91C64.57 310.18 57.06 308.09 57 308.23Z" fill="#263238"/>
<path d="M84.54 300.75C84.8367 300.424 85.095 300.065 85.31 299.68L87.31 296.68C88.97 294.16 91.31 290.68 94.14 287.05C96.97 283.42 99.64 280.2 101.62 277.92L103.98 275.23C104.293 274.928 104.571 274.593 104.81 274.23C104.445 274.485 104.11 274.78 103.81 275.11C103.2 275.71 102.35 276.59 101.32 277.7C99.25 279.91 96.5 283.08 93.69 286.75C90.88 290.42 88.55 293.92 86.96 296.5C86.17 297.79 85.55 298.85 85.14 299.59C84.9047 299.957 84.7039 300.346 84.54 300.75Z" fill="#263238"/>
<path d="M110.43 311.18C110.952 312.176 111.536 313.138 112.18 314.06C113.3 315.81 114.81 318.24 116.37 320.99C117.93 323.74 119.26 326.28 120.19 328.14C120.65 329.173 121.178 330.175 121.77 331.14C121.464 330.055 121.052 329.003 120.54 328C119.69 326.1 118.42 323.52 116.84 320.75C115.26 317.98 113.7 315.57 112.5 313.87C111.898 312.909 111.204 312.008 110.43 311.18Z" fill="#263238"/>
<path d="M119.29 343.67C119.29 343.74 120.75 343.05 123.08 342C125.41 340.95 128.66 339.58 132.33 338.3C136 337.02 139.4 336.05 141.88 335.42C144.36 334.79 145.88 334.42 145.88 334.37C145.507 334.355 145.133 334.392 144.77 334.48C144.06 334.59 143.04 334.78 141.77 335.05C135.236 336.48 128.9 338.696 122.9 341.65C121.75 342.22 120.83 342.71 120.21 343.07C119.879 343.23 119.57 343.432 119.29 343.67V343.67Z" fill="#263238"/>
<path d="M112.32 382.51C112.32 382.51 112.47 382.59 112.78 382.67L114.12 383.01L119.12 384.16C124.587 385.304 129.991 386.729 135.31 388.43C140.606 390.2 145.677 392.583 150.42 395.53C152.23 396.68 153.64 397.7 154.59 398.43C155.068 398.828 155.569 399.199 156.09 399.54C156.09 399.54 155.98 399.4 155.75 399.18C155.52 398.96 155.18 398.64 154.75 398.26C153.446 397.167 152.08 396.148 150.66 395.21C145.944 392.145 140.857 389.696 135.52 387.92C130.181 386.203 124.741 384.821 119.23 383.78L114.23 382.78C113.6 382.65 112.962 382.559 112.32 382.51Z" fill="#263238"/>
<path d="M87.1005 392.09C87.2505 392.09 88.1005 386.88 89.1005 380.41C90.1005 373.94 90.7005 368.67 90.5505 368.65C90.4005 368.63 89.5505 373.86 88.5505 380.33C87.5505 386.8 87.0005 392.07 87.1005 392.09Z" fill="#263238"/>
<path d="M60.8398 382.56C61.6911 381.677 62.4829 380.738 63.2098 379.75C64.6298 377.98 66.5898 375.55 68.8198 372.9C71.0498 370.25 73.0998 367.9 74.5998 366.2C75.4588 365.312 76.2604 364.37 76.9998 363.38C76.7185 363.561 76.4628 363.78 76.2398 364.03C75.7798 364.46 75.1398 365.12 74.3498 365.94C72.7798 367.58 70.6698 369.94 68.4398 372.55C66.2098 375.16 64.2898 377.68 62.9498 379.55C62.2698 380.47 61.7398 381.22 61.3898 381.74C61.1702 381.987 60.9852 382.263 60.8398 382.56V382.56Z" fill="#263238"/>
<path d="M130.33 406.91V419.88H127.08L115.55 456.28H89.9805L78.8105 420.24L74.4805 419.88V406.91H130.33Z" fill="#364FAB"/>
<g opacity="0.3">
<path opacity="0.3" d="M130.33 406.91V419.88H127.08L115.55 456.28H89.9805L78.8105 420.24L74.4805 419.88V406.91H130.33Z" fill="black"/>
</g>
<path d="M76.6396 420.24C76.6396 420.39 87.9396 420.51 101.86 420.51C115.78 420.51 127.08 420.39 127.08 420.24C127.08 420.09 115.79 419.97 101.86 419.97C87.9296 419.97 76.6396 420.09 76.6396 420.24Z" fill="#263238"/>
<path d="M58.25 336.79C58.7832 336.983 59.3318 337.13 59.89 337.23L64.38 338.32C68.16 339.25 73.38 340.67 78.99 342.57C84.6 344.47 89.63 346.47 93.21 348.01L97.44 349.86C97.9457 350.114 98.4706 350.328 99.01 350.5C98.5413 350.182 98.0461 349.904 97.53 349.67C96.53 349.17 95.14 348.48 93.36 347.67C88.7281 345.561 83.992 343.688 79.17 342.06C74.3444 340.437 69.4378 339.065 64.47 337.95C62.56 337.53 61.01 337.22 59.93 337.04C59.3785 336.907 58.8163 336.823 58.25 336.79Z" fill="#263238"/>
<path d="M85.1299 440.45C85.1299 440.6 93.0599 440.72 102.83 440.72C112.6 440.72 120.52 440.6 120.52 440.45C120.52 440.3 112.6 440.18 102.83 440.18C93.0599 440.18 85.1299 440.3 85.1299 440.45Z" fill="#FAFAFA"/>
<path d="M84.1396 437.44C84.1396 437.59 92.5396 437.71 102.89 437.71C113.24 437.71 121.64 437.59 121.64 437.44C121.64 437.29 113.25 437.17 102.89 437.17C92.5296 437.17 84.1396 437.29 84.1396 437.44Z" fill="#FAFAFA"/>
<path d="M709.46 456.48C709.46 456.63 557.02 456.75 369.02 456.75C181.02 456.75 28.54 456.63 28.54 456.48C28.54 456.33 181 456.22 369 456.22C557 456.22 709.46 456.34 709.46 456.48Z" fill="#263238"/>
<path d="M616.04 76.1299H348.05V242.09H573.65L587.62 274.22L600 242.09H616.04V76.1299Z" fill="#171723"/>
<path d="M616 76.1201C616 77.7301 616.07 140.12 616.2 242.12V242.32H600L600.19 242.19C596.32 252.26 592.14 263.11 587.82 274.32L587.63 274.83L587.41 274.33C583.03 264.27 578.3 253.38 573.41 242.2L573.62 242.34H369.62H347.79V242.08C347.79 182.93 347.79 126.8 347.79 76.0801V75.8501H348.03L616.03 76.0801L348.03 76.3201L348.27 76.0801C348.27 126.77 348.27 182.9 348.27 242.08L348.01 241.82H369.59H573.59H573.74L573.8 241.96L587.8 274.1H587.39L599.81 242L599.86 241.86H616L615.8 242.06C616 140.08 616 77.7301 616 76.1201Z" fill="#364FAB"/>
<path d="M615.9 92.32C615.9 92.52 556.02 92.69 482.18 92.69C408.34 92.69 348.45 92.52 348.45 92.32C348.45 92.12 408.32 92 482.18 92C556.04 92 615.9 92.12 615.9 92.32Z" fill="#364FAB"/>
<path d="M362.29 85.0003C362.29 85.4359 362.16 85.8616 361.918 86.2236C361.676 86.5856 361.332 86.8676 360.929 87.0338C360.527 87.2 360.084 87.243 359.657 87.1573C359.23 87.0716 358.838 86.8611 358.53 86.5524C358.223 86.2437 358.014 85.8508 357.931 85.4233C357.847 84.9959 357.892 84.5533 358.06 84.1515C358.228 83.7496 358.512 83.4067 358.875 83.1662C359.238 82.9257 359.664 82.7983 360.1 82.8003C360.681 82.803 361.238 83.0359 361.649 83.4482C362.059 83.8605 362.29 84.4186 362.29 85.0003V85.0003Z" fill="#364FAB"/>
<path d="M370.24 85.0003C370.24 85.4359 370.111 85.8616 369.868 86.2236C369.626 86.5856 369.282 86.8676 368.879 87.0338C368.477 87.2 368.034 87.243 367.607 87.1573C367.18 87.0716 366.788 86.8611 366.481 86.5524C366.173 86.2437 365.965 85.8508 365.881 85.4233C365.797 84.9959 365.842 84.5533 366.01 84.1515C366.178 83.7496 366.462 83.4067 366.825 83.1662C367.188 82.9257 367.614 82.7983 368.05 82.8003C368.632 82.803 369.189 83.0359 369.599 83.4482C370.009 83.8605 370.24 84.4186 370.24 85.0003V85.0003Z" fill="#364FAB"/>
<path d="M378.19 85.0003C378.19 85.4354 378.061 85.8608 377.819 86.2225C377.578 86.5843 377.234 86.8663 376.832 87.0328C376.43 87.1993 375.988 87.2429 375.561 87.158C375.134 87.0731 374.742 86.8636 374.434 86.5559C374.127 86.2482 373.917 85.8562 373.832 85.4295C373.747 85.0027 373.791 84.5604 373.957 84.1584C374.124 83.7564 374.406 83.4128 374.768 83.1711C375.13 82.9293 375.555 82.8003 375.99 82.8003C376.574 82.8003 377.133 83.0321 377.546 83.4447C377.958 83.8572 378.19 84.4168 378.19 85.0003V85.0003Z" fill="#364FAB"/>
<path d="M377.28 122L370.92 124.46L377.28 126.91V128.4L369.28 125.23V123.7L377.28 120.52V122Z" fill="#364FAB"/>
<path d="M383.9 115.65H385.46L379.54 132.53H378L383.9 115.65Z" fill="#364FAB"/>
<path d="M394 123.7V125.24L386 128.41V126.92L392.38 124.47L386 122V120.51L394 123.7Z" fill="#364FAB"/>
<path d="M396.06 129.61C396.057 129.449 396.087 129.289 396.147 129.14C396.207 128.991 396.297 128.855 396.411 128.742C396.525 128.628 396.66 128.538 396.81 128.478C396.959 128.417 397.119 128.388 397.28 128.39C397.439 128.389 397.597 128.42 397.744 128.481C397.891 128.542 398.024 128.632 398.135 128.746C398.246 128.86 398.333 128.996 398.391 129.144C398.448 129.293 398.475 129.451 398.47 129.61C398.475 129.77 398.448 129.93 398.391 130.079C398.334 130.229 398.247 130.366 398.136 130.481C398.025 130.597 397.892 130.689 397.745 130.752C397.598 130.816 397.44 130.849 397.28 130.85C397.118 130.85 396.958 130.818 396.808 130.756C396.659 130.693 396.523 130.601 396.41 130.486C396.296 130.371 396.207 130.234 396.147 130.083C396.087 129.933 396.057 129.772 396.06 129.61V129.61Z" fill="#364FAB"/>
<path d="M400.14 129.61C400.136 129.449 400.165 129.288 400.224 129.138C400.284 128.988 400.374 128.852 400.488 128.738C400.602 128.624 400.738 128.534 400.888 128.475C401.038 128.415 401.199 128.386 401.36 128.39C401.518 128.39 401.675 128.422 401.821 128.484C401.967 128.545 402.099 128.636 402.209 128.75C402.319 128.864 402.405 128.998 402.462 129.146C402.519 129.294 402.545 129.452 402.54 129.61C402.545 129.769 402.519 129.928 402.462 130.077C402.406 130.226 402.32 130.362 402.21 130.477C402.1 130.593 401.968 130.685 401.823 130.749C401.677 130.813 401.519 130.847 401.36 130.85C401.198 130.851 401.037 130.82 400.887 130.758C400.737 130.696 400.601 130.604 400.487 130.489C400.373 130.373 400.284 130.236 400.224 130.085C400.165 129.934 400.136 129.772 400.14 129.61V129.61Z" fill="#364FAB"/>
<path d="M404.21 129.61C404.206 129.449 404.235 129.288 404.295 129.138C404.355 128.988 404.444 128.852 404.559 128.738C404.673 128.624 404.809 128.534 404.959 128.475C405.109 128.415 405.269 128.386 405.43 128.39C405.589 128.39 405.746 128.422 405.891 128.484C406.037 128.545 406.169 128.636 406.279 128.75C406.389 128.864 406.475 128.998 406.532 129.146C406.589 129.294 406.616 129.452 406.61 129.61C406.616 129.769 406.589 129.928 406.533 130.077C406.476 130.226 406.39 130.362 406.28 130.477C406.17 130.593 406.039 130.685 405.893 130.749C405.747 130.813 405.59 130.847 405.43 130.85C405.268 130.851 405.107 130.82 404.957 130.758C404.807 130.696 404.671 130.604 404.557 130.489C404.444 130.373 404.354 130.236 404.295 130.085C404.235 129.934 404.206 129.772 404.21 129.61V129.61Z" fill="#364FAB"/>
<path d="M546.5 145.71C546.5 145.91 506.89 146.07 458.03 146.07C409.17 146.07 369.55 145.91 369.55 145.71C369.55 145.51 409.16 145.34 458.03 145.34C506.9 145.34 546.5 145.5 546.5 145.71Z" fill="#364FAB"/>
<path d="M575.4 146.23C575.4 146.43 571.6 146.6 566.9 146.6C562.2 146.6 558.4 146.43 558.4 146.23C558.4 146.03 562.21 145.86 566.9 145.86C571.59 145.86 575.4 146 575.4 146.23Z" fill="#364FAB"/>
<path d="M600.25 146.23C600.25 146.43 596.09 146.6 590.97 146.6C585.85 146.6 581.68 146.43 581.68 146.23C581.68 146.03 585.84 145.86 590.97 145.86C596.1 145.86 600.25 146 600.25 146.23Z" fill="#364FAB"/>
<path d="M482.23 160.62C482.23 160.82 457.05 160.98 425.99 160.98C394.93 160.98 369.76 160.82 369.76 160.62C369.76 160.42 394.93 160.25 425.99 160.25C457.05 160.25 482.23 160.41 482.23 160.62Z" fill="#364FAB"/>
<path d="M481.42 216.25C481.42 216.45 456.24 216.61 425.19 216.61C394.14 216.61 368.95 216.45 368.95 216.25C368.95 216.05 394.13 215.88 425.19 215.88C456.25 215.88 481.42 216.05 481.42 216.25Z" fill="#364FAB"/>
<path d="M523.09 160.62C523.09 160.82 516.24 160.98 507.79 160.98C499.34 160.98 492.49 160.82 492.49 160.62C492.49 160.42 499.34 160.25 507.79 160.25C516.24 160.25 523.09 160.41 523.09 160.62Z" fill="#364FAB"/>
<path d="M522.77 216.25C522.77 216.45 515.92 216.61 507.47 216.61C499.02 216.61 492.17 216.45 492.17 216.25C492.17 216.05 499.02 215.88 507.47 215.88C515.92 215.88 522.77 216.05 522.77 216.25Z" fill="#364FAB"/>
<path d="M377.14 168.2C377.14 168.4 375.44 168.57 373.34 168.57C371.24 168.57 369.55 168.4 369.55 168.2C369.55 168 371.25 167.84 373.34 167.84C375.43 167.84 377.14 168 377.14 168.2Z" fill="#364FAB"/>
<path d="M403.29 168.36C403.29 168.56 399.6 168.72 395.05 168.72C390.5 168.72 386.81 168.56 386.81 168.36C386.81 168.16 390.5 167.99 395.05 167.99C399.6 167.99 403.29 168.16 403.29 168.36Z" fill="#364FAB"/>
<path d="M420 168.36C420 168.56 416.84 168.72 412.94 168.72C409.04 168.72 405.88 168.56 405.88 168.36C405.88 168.16 409.04 167.99 412.94 167.99C416.84 167.99 420 168.16 420 168.36Z" fill="#364FAB"/>
<path d="M441.22 168.36C441.22 168.56 438 168.72 434.03 168.72C430.06 168.72 426.83 168.56 426.83 168.36C426.83 168.16 430.05 167.99 434.03 167.99C438.01 167.99 441.22 168.16 441.22 168.36Z" fill="#364FAB"/>
<path d="M459.79 168.36C459.79 168.56 456.86 168.72 453.25 168.72C449.64 168.72 446.71 168.56 446.71 168.36C446.71 168.16 449.64 167.99 453.25 167.99C456.86 167.99 459.79 168.16 459.79 168.36Z" fill="#364FAB"/>
<path d="M521.26 168.36C521.26 168.56 508.38 168.72 492.49 168.72C476.6 168.72 463.71 168.56 463.71 168.36C463.71 168.16 476.59 167.99 492.49 167.99C508.39 167.99 521.26 168.16 521.26 168.36Z" fill="#364FAB"/>
<path d="M376.09 177.88C376.09 178.08 374.63 178.25 372.82 178.25C371.01 178.25 369.55 178.08 369.55 177.88C369.55 177.68 371.01 177.51 372.82 177.51C374.63 177.51 376.09 177.68 376.09 177.88Z" fill="#364FAB"/>
<path d="M376.35 187.82C376.35 188.02 374.83 188.19 372.95 188.19C371.07 188.19 369.55 188.02 369.55 187.82C369.55 187.62 371.07 187.45 372.95 187.45C374.83 187.45 376.35 187.62 376.35 187.82Z" fill="#364FAB"/>
<path d="M376.35 199.07C376.35 199.27 374.83 199.43 372.95 199.43C371.07 199.43 369.55 199.27 369.55 199.07C369.55 198.87 371.07 198.7 372.95 198.7C374.83 198.7 376.35 198.86 376.35 199.07Z" fill="#364FAB"/>
<path d="M438.34 198.54C438.34 198.75 426.98 198.91 412.97 198.91C398.96 198.91 387.6 198.75 387.6 198.54C387.6 198.33 398.96 198.18 412.97 198.18C426.98 198.18 438.34 198.34 438.34 198.54Z" fill="#364FAB"/>
<path d="M433.9 187.82C433.9 188.02 423.06 188.19 409.7 188.19C396.34 188.19 385.51 188.02 385.51 187.82C385.51 187.62 396.34 187.45 409.7 187.45C423.06 187.45 433.9 187.62 433.9 187.82Z" fill="#364FAB"/>
<path d="M550.82 177.36C550.82 177.56 513.92 177.72 468.43 177.72C422.94 177.72 386.03 177.56 386.03 177.36C386.03 177.16 422.91 176.99 468.43 176.99C513.95 176.99 550.82 177.15 550.82 177.36Z" fill="#364FAB"/>
<path d="M632.5 144V285.04L610.57 303.33H632.5H634.66H725.26V144H632.5Z" fill="#171723"/>
<path d="M632.5 144C632.5 144 633.05 144 634.12 144H638.92H657.39L725.26 143.9H725.46V144.1C725.46 186.67 725.46 242.27 725.52 303.43V303.69H709.18H610.57H609.91L610.42 303.26L632.36 284.97L632.27 285.15C632.32 242.98 632.36 207.7 632.39 182.95C632.39 170.6 632.44 160.88 632.45 154.24C632.45 150.94 632.45 148.41 632.45 146.68C632.45 145.84 632.45 145.19 632.45 144.75C632.45 144.31 632.45 144.11 632.45 144.11C632.45 144.11 632.45 144.34 632.45 144.78C632.45 145.22 632.45 145.88 632.45 146.78C632.45 148.51 632.45 151.06 632.45 154.38C632.45 161.03 632.45 170.77 632.51 183.13C632.51 207.85 632.57 243.13 632.62 285.19V285.29L632.54 285.36L610.62 303.67L610.46 303.24H709.07H725.15L724.89 303.5C724.89 242.34 724.89 186.74 724.95 144.17L725.15 144.36L657.4 144.26L639 144H634.16H632.5Z" fill="#364FAB"/>
<path d="M640.93 151C640.93 151.372 640.82 151.735 640.613 152.045C640.407 152.354 640.113 152.595 639.769 152.737C639.426 152.879 639.048 152.917 638.683 152.844C638.318 152.771 637.983 152.592 637.721 152.329C637.458 152.067 637.279 151.732 637.206 151.367C637.134 151.002 637.171 150.624 637.313 150.281C637.455 149.937 637.696 149.644 638.005 149.437C638.315 149.23 638.678 149.12 639.05 149.12C639.549 149.12 640.027 149.318 640.379 149.671C640.732 150.023 640.93 150.502 640.93 151V151Z" fill="#364FAB"/>
<path d="M647.73 151C647.73 151.372 647.62 151.735 647.413 152.045C647.207 152.354 646.913 152.595 646.57 152.737C646.226 152.879 645.848 152.917 645.483 152.844C645.119 152.771 644.784 152.592 644.521 152.329C644.258 152.067 644.079 151.732 644.006 151.367C643.934 151.002 643.971 150.624 644.113 150.281C644.256 149.937 644.497 149.644 644.806 149.437C645.115 149.23 645.478 149.12 645.85 149.12C646.349 149.12 646.827 149.318 647.18 149.671C647.532 150.023 647.73 150.502 647.73 151V151Z" fill="#364FAB"/>
<path d="M654.53 151C654.53 151.372 654.42 151.735 654.213 152.045C654.007 152.354 653.713 152.595 653.369 152.737C653.026 152.879 652.648 152.917 652.283 152.844C651.919 152.771 651.584 152.592 651.321 152.329C651.058 152.067 650.879 151.732 650.806 151.367C650.734 151.002 650.771 150.624 650.913 150.281C651.055 149.937 651.296 149.644 651.606 149.437C651.915 149.23 652.278 149.12 652.65 149.12C653.149 149.12 653.627 149.318 653.979 149.671C654.332 150.023 654.53 150.502 654.53 151V151Z" fill="#364FAB"/>
<path d="M699.76 194.47C699.76 194.64 688 194.77 673.5 194.77C659 194.77 647.24 194.64 647.24 194.47C647.24 194.3 658.99 194.17 673.5 194.17C688.01 194.17 699.76 194.3 699.76 194.47Z" fill="#364FAB"/>
<path d="M710.72 207.23C710.72 207.39 696.41 207.53 678.72 207.53C661.03 207.53 646.72 207.39 646.72 207.23C646.72 207.07 661.03 206.93 678.72 206.93C696.41 206.93 710.72 207.06 710.72 207.23Z" fill="#364FAB"/>
<path d="M713.32 254.83C713.32 255 698.06 255.13 679.24 255.13C660.42 255.13 645.16 255 645.16 254.83C645.16 254.66 660.42 254.53 679.24 254.53C698.06 254.53 713.32 254.67 713.32 254.83Z" fill="#364FAB"/>
<path d="M652.16 213.72C650.015 214.12 647.815 214.12 645.67 213.72C647.815 213.32 650.015 213.32 652.16 213.72V213.72Z" fill="#364FAB"/>
<path d="M674.55 213.85C674.55 214.02 671.39 214.15 667.55 214.15C663.71 214.15 660.55 214.02 660.55 213.85C665.241 213.45 669.958 213.45 674.65 213.85H674.55Z" fill="#364FAB"/>
<path d="M688.87 213.85C688.87 214.02 686.17 214.15 682.87 214.15C679.57 214.15 676.82 214.02 676.82 213.85C680.84 213.45 684.89 213.45 688.91 213.85H688.87Z" fill="#364FAB"/>
<path d="M651.27 222C649.425 222.4 647.515 222.4 645.67 222C647.515 221.6 649.425 221.6 651.27 222Z" fill="#364FAB"/>
<path d="M651.49 230.51C649.571 230.91 647.589 230.91 645.67 230.51C647.588 230.097 649.572 230.097 651.49 230.51Z" fill="#364FAB"/>
<path d="M651.49 240.13C649.571 240.53 647.589 240.53 645.67 240.13C647.589 239.73 649.571 239.73 651.49 240.13V240.13Z" fill="#364FAB"/>
<path d="M704.54 239.68C704.54 239.85 694.82 239.98 682.83 239.98C670.84 239.98 661.12 239.85 661.12 239.68C661.12 239.51 670.84 239.38 682.83 239.38C694.82 239.38 704.54 239.52 704.54 239.68Z" fill="#364FAB"/>
<path d="M700.73 230.51C700.73 230.67 691.46 230.81 680.03 230.81C668.6 230.81 659.33 230.67 659.33 230.51C659.33 230.35 668.59 230.2 680.03 230.2C691.47 230.2 700.73 230.34 700.73 230.51Z" fill="#364FAB"/>
<path d="M655.73 267.54C653.811 267.94 651.83 267.94 649.91 267.54C651.83 267.14 653.811 267.14 655.73 267.54V267.54Z" fill="#364FAB"/>
<path d="M655.73 277.17C653.811 277.57 651.83 277.57 649.91 277.17C651.828 276.757 653.812 276.757 655.73 277.17V277.17Z" fill="#364FAB"/>
<path d="M708.78 276.72C708.78 276.88 699.06 277.02 687.07 277.02C675.08 277.02 665.36 276.88 665.36 276.72C665.36 276.56 675.07 276.42 687.07 276.42C699.07 276.42 708.78 276.55 708.78 276.72Z" fill="#364FAB"/>
<path d="M705 267.54C705 267.71 695.73 267.84 684.3 267.84C672.87 267.84 663.59 267.71 663.59 267.54C663.59 267.37 672.86 267.24 684.3 267.24C695.74 267.24 705 267.37 705 267.54Z" fill="#364FAB"/>
<path d="M716.13 221.55C716.13 221.72 703.51 221.85 687.95 221.85C672.39 221.85 659.77 221.72 659.77 221.55C659.77 221.38 672.39 221.25 687.95 221.25C703.51 221.25 716.13 221.39 716.13 221.55Z" fill="#364FAB"/>
<path d="M724.39 158.38C724.39 158.54 704.02 158.68 678.9 158.68C653.78 158.68 633.41 158.54 633.41 158.38C633.41 158.22 653.77 158.08 678.9 158.08C704.03 158.08 724.39 158.21 724.39 158.38Z" fill="#364FAB"/>
<path d="M666.43 186.78C660.03 187.18 653.61 187.18 647.21 186.78C647.21 186.61 651.51 186.48 656.82 186.48C662.13 186.48 666.43 186.61 666.43 186.78Z" fill="#364FAB"/>
<path d="M655.55 169.37C655.55 169.54 653.55 169.67 651.02 169.67C648.49 169.67 646.49 169.54 646.49 169.37C649.497 168.97 652.543 168.97 655.55 169.37Z" fill="#364FAB"/>
<path d="M575.271 374.76L595.411 354.85L559.491 293.34C555.753 289.062 551.02 285.769 545.711 283.75L533.061 278.94L501.611 273.17L479.291 282C476.544 283.08 474.233 285.04 472.719 287.573C471.204 290.106 470.572 293.069 470.921 296L476.761 345.16L480.201 409.16L561.331 395.08L553.171 371.41L553.441 334.49L575.271 374.76Z" fill="#364FAB"/>
<path d="M553.91 369.82C554.1 369.82 554.15 357.03 554.02 341.26C553.89 325.49 553.64 312.7 553.45 312.7C553.26 312.7 553.21 325.49 553.34 341.26C553.47 357.03 553.72 369.82 553.91 369.82Z" fill="#263238"/>
<path d="M550.94 379.2L501.94 359.47C500.001 358.689 498.318 357.382 497.082 355.697C495.845 354.011 495.103 352.014 494.94 349.93L491.36 302.93C491.36 302.93 491.78 282.93 479.3 281.93L472.19 284.72C463 289.64 460.73 303 462 313.32C463.77 327.98 464.51 348.73 466.5 361.46C468.13 371.87 474.38 380.1 484.28 383.71L544.66 396.78L550.94 379.2Z" fill="#364FAB"/>
<path d="M492.05 310.1C492.125 310.453 492.175 310.81 492.2 311.17C492.28 311.94 492.39 312.97 492.52 314.27C492.77 317.02 493.12 320.9 493.52 325.67C493.92 330.44 494.42 336.23 494.97 342.58C495.1 344.17 495.24 345.8 495.38 347.47C495.478 349.149 495.689 350.819 496.01 352.47C496.349 354.152 497.197 355.688 498.44 356.87C499.787 358.047 501.317 358.996 502.97 359.68C516.48 365.53 528.97 370.36 537.97 373.75L548.71 377.75L551.63 378.82C551.976 378.929 552.311 379.069 552.63 379.24C552.291 379.167 551.956 379.07 551.63 378.95L548.63 377.95C546.06 377.1 542.36 375.82 537.81 374.19C528.72 370.9 516.24 366.19 502.68 360.28C500.964 359.562 499.377 358.569 497.98 357.34C496.642 356.071 495.73 354.419 495.37 352.61C495.045 350.92 494.838 349.209 494.75 347.49C494.61 345.823 494.48 344.193 494.36 342.6C493.86 336.24 493.42 330.51 493.04 325.67C492.66 320.83 492.42 317.02 492.21 314.26C492.13 312.96 492.07 311.92 492.02 311.15C492.007 310.8 492.017 310.449 492.05 310.1V310.1Z" fill="#263238"/>
<path d="M464 335.65C464.069 335.853 464.103 336.066 464.1 336.28C464.1 336.77 464.2 337.37 464.26 338.09C464.41 339.77 464.61 342.02 464.84 344.76C465.07 347.5 465.45 350.92 465.94 354.62C466.424 358.633 467.165 362.612 468.16 366.53C468.617 368.546 469.426 370.465 470.55 372.2C471.633 373.806 472.858 375.312 474.21 376.7C476.5 379.064 479.15 381.052 482.06 382.59C484.768 383.967 487.672 384.918 490.67 385.41C490.457 385.434 490.243 385.434 490.03 385.41C489.419 385.376 488.81 385.299 488.21 385.18C485.981 384.758 483.823 384.025 481.8 383C478.813 381.493 476.091 379.51 473.74 377.13C472.347 375.727 471.088 374.197 469.98 372.56C468.808 370.769 467.961 368.785 467.48 366.7C466.482 362.754 465.754 358.745 465.3 354.7C464.85 350.98 464.55 347.62 464.3 344.8C464.05 341.98 463.99 339.69 463.93 338.11C463.93 337.38 463.93 336.78 463.93 336.28C463.927 336.068 463.951 335.856 464 335.65V335.65Z" fill="#263238"/>
<path d="M484.93 368.54C485.052 367.617 485.355 366.727 485.82 365.92C486.826 363.913 488.223 362.127 489.931 360.669C491.638 359.211 493.62 358.11 495.76 357.43C496.627 357.098 497.551 356.938 498.48 356.96C498.48 357.07 497.48 357.27 495.92 357.87C493.896 358.654 492.017 359.77 490.36 361.17C488.711 362.592 487.314 364.282 486.23 366.17C485.39 367.59 485 368.57 484.93 368.54Z" fill="#263238"/>
<g opacity="0.3">
<path opacity="0.3" d="M536.85 373.6C531.61 370.6 526.48 368.36 521 365.87C515.52 363.38 510.15 360.18 506.57 355.35C499.8 346.23 500.57 333.07 493.65 324.07L495 342.22C495.42 347.77 494.57 353.22 498.14 357.02C501.14 360.19 507.02 362.63 511.14 364.02C519.49 366.77 528.48 370.86 536.82 373.62" fill="black"/>
</g>
<path opacity="0.3" d="M553.45 316.16L557.69 342.32L553.68 334.91L553.45 316.16Z" fill="black"/>
<path d="M490.571 300C490.2 300.08 489.82 300.11 489.441 300.09L486.341 300.17C483.731 300.24 480.131 300.37 476.161 300.65C472.191 300.93 468.611 301.32 466.011 301.65L462.941 302.01C462.568 302.075 462.189 302.101 461.811 302.09C462.162 301.945 462.532 301.85 462.911 301.81C463.631 301.66 464.671 301.48 465.911 301.28C468.501 300.88 472.091 300.44 476.071 300.15C480.051 299.86 483.671 299.79 486.291 299.82C487.601 299.82 488.661 299.87 489.391 299.91C489.786 299.897 490.182 299.927 490.571 300V300Z" fill="#455A64"/>
<path d="M492 325.06C492 325.2 485.58 325.85 477.65 326.5C469.72 327.15 463.26 327.58 463.25 327.43C463.24 327.28 469.66 326.64 477.6 325.98C485.54 325.32 492 324.91 492 325.06Z" fill="#455A64"/>
<path d="M494.33 351.37C494.019 351.599 493.684 351.793 493.33 351.95C492.66 352.3 491.68 352.76 490.43 353.28C483.942 355.994 477.026 357.544 470 357.86C468.65 357.92 467.56 357.92 466.81 357.86C466.421 357.882 466.031 357.851 465.65 357.77C466.032 357.694 466.421 357.657 466.81 357.66C467.56 357.66 468.64 357.57 469.98 357.46C473.444 357.216 476.886 356.729 480.28 356C483.681 355.241 487.023 354.238 490.28 353C491.53 352.52 492.54 352.12 493.28 351.83C493.612 351.637 493.964 351.483 494.33 351.37V351.37Z" fill="#455A64"/>
<path d="M511.76 364.87C509.988 365.968 508.356 367.278 506.9 368.77C505.573 370.378 504.436 372.132 503.51 374C503.576 373.375 503.759 372.768 504.05 372.21C505.29 369.418 507.393 367.098 510.05 365.59C510.566 365.237 511.148 364.992 511.76 364.87V364.87Z" fill="#455A64"/>
<path d="M529.49 382.19C530.268 378.561 532.09 375.238 534.73 372.63C534.85 372.73 533.31 374.63 531.87 377.28C530.43 379.93 529.64 382.24 529.49 382.19Z" fill="#455A64"/>
<path d="M501.55 285.3C499.279 285.972 496.964 286.48 494.62 286.82C492.314 287.322 489.975 287.657 487.62 287.82C489.889 287.141 492.205 286.633 494.55 286.3C496.856 285.797 499.196 285.463 501.55 285.3V285.3Z" fill="#455A64"/>
<path d="M548.48 287.44C545.26 287.319 542.049 287.025 538.86 286.56C535.653 286.269 532.465 285.802 529.31 285.16C532.53 285.288 535.741 285.581 538.93 286.04C542.136 286.337 545.324 286.804 548.48 287.44V287.44Z" fill="#455A64"/>
<path d="M552.48 309.26C552.278 309.29 552.072 309.29 551.87 309.26H550.11H543.64C538.18 309.26 530.64 309.26 522.31 309.51C513.98 309.76 506.45 310.07 500.99 310.36L494.53 310.7L492.78 310.77C492.575 310.801 492.366 310.801 492.16 310.77C492.36 310.722 492.564 310.691 492.77 310.68L494.52 310.5C496.04 310.36 498.24 310.19 500.97 310C506.42 309.62 513.97 309.22 522.3 309C530.63 308.78 538.18 308.8 543.65 308.9C546.38 308.95 548.59 309.01 550.11 309.08L551.87 309.16C552.076 309.174 552.28 309.208 552.48 309.26V309.26Z" fill="#455A64"/>
<path d="M553.06 336.91C553.06 337.05 540.21 338.01 524.34 339.06C508.47 340.11 495.59 340.83 495.58 340.69C495.57 340.55 508.43 339.58 524.3 338.54C540.17 337.5 553.05 336.76 553.06 336.91Z" fill="#455A64"/>
<path d="M551.69 361.26C551.347 361.45 550.985 361.604 550.61 361.72C549.9 361.99 548.87 362.34 547.61 362.72C545.04 363.56 541.45 364.61 537.44 365.58C533.43 366.55 529.76 367.24 527.09 367.65C525.75 367.87 524.67 368.02 523.92 368.1C523.53 368.165 523.135 368.192 522.74 368.18C523.112 368.045 523.498 367.951 523.89 367.9L527.02 367.29C529.67 366.78 533.32 366.03 537.32 365.07C541.32 364.11 544.91 363.12 547.5 362.37L550.57 361.48C550.933 361.361 551.309 361.287 551.69 361.26V361.26Z" fill="#455A64"/>
<path d="M572.26 317.12C569.198 318.182 566.08 319.077 562.92 319.8C559.805 320.695 556.643 321.423 553.45 321.98C556.514 320.922 559.631 320.027 562.79 319.3C565.905 318.401 569.066 317.673 572.26 317.12V317.12Z" fill="#455A64"/>
<path d="M562.45 298.43C561.12 298.933 559.733 299.269 558.32 299.43C556.932 299.768 555.508 299.936 554.08 299.93C555.416 299.434 556.805 299.098 558.22 298.93C559.605 298.592 561.025 298.424 562.45 298.43V298.43Z" fill="#455A64"/>
<path d="M492.2 304.23C492.1 304.23 491.94 302.57 491.03 300.06C489.849 296.779 487.874 293.841 485.281 291.51C482.688 289.179 479.557 287.526 476.17 286.7C473.57 286.06 471.88 286.09 471.89 285.99C472.279 285.92 472.676 285.903 473.07 285.94C474.14 285.983 475.204 286.12 476.25 286.35C479.741 287.09 482.975 288.735 485.629 291.12C488.283 293.506 490.263 296.547 491.37 299.94C491.713 300.954 491.961 301.999 492.11 303.06C492.193 303.444 492.223 303.838 492.2 304.23V304.23Z" fill="#263238"/>
<path d="M550.6 290.9C551.353 293.911 551.931 296.962 552.33 300.04C552.91 303.091 553.314 306.173 553.54 309.27C552.799 306.254 552.225 303.199 551.82 300.12C551.241 297.072 550.833 293.994 550.6 290.9Z" fill="#263238"/>
<path d="M605.24 438.29C605.24 438.29 642.92 448.71 644.43 449.29C646.7 450.09 646.32 458.4 642.79 458.29C641.12 458.23 613.85 459.29 610.4 459.09C606.95 458.89 596.56 454.78 596.56 454.78L605.24 438.29Z" fill="#364FAB"/>
<path d="M620.94 452.66C621.13 452.66 621.38 450.66 622.6 448.66C623.82 446.66 625.38 445.34 625.26 445.19C625.14 445.04 623.32 446.11 622.05 448.34C620.78 450.57 620.78 452.68 620.94 452.66Z" fill="#263238"/>
<path d="M617 450.88C617.18 450.88 617.56 449.13 618.57 447.16C619.58 445.19 620.76 443.82 620.57 443.69C619.404 444.474 618.493 445.583 617.95 446.88C617 449 616.85 450.87 617 450.88Z" fill="#263238"/>
<path d="M613.32 449.9C613.51 449.9 613.32 448 614.2 445.9C615.08 443.8 616.39 442.52 616.26 442.38C616.13 442.24 614.49 443.38 613.62 445.68C612.75 447.98 613.17 450 613.32 449.9Z" fill="#263238"/>
<path d="M614 445C614.335 444.103 614.475 443.145 614.41 442.19C614.398 441.155 614.267 440.125 614.02 439.12C613.879 438.523 613.692 437.938 613.46 437.37C613.346 437.015 613.139 436.698 612.86 436.45C612.673 436.306 612.44 436.233 612.204 436.244C611.968 436.255 611.743 436.349 611.57 436.51C611.275 436.792 611.094 437.173 611.06 437.58C611.04 437.913 611.04 438.247 611.06 438.58C611.063 439.204 611.14 439.825 611.29 440.43C611.544 441.438 611.934 442.407 612.45 443.31C612.87 444.164 613.443 444.933 614.14 445.58C614.23 445.52 613.6 444.64 612.84 443.1C612.399 442.209 612.064 441.269 611.84 440.3C611.723 439.734 611.663 439.158 611.66 438.58C611.66 438 611.66 437.28 612.01 437C612.077 436.935 612.167 436.899 612.26 436.899C612.353 436.899 612.443 436.935 612.51 437C612.702 437.18 612.844 437.408 612.92 437.66C613.147 438.2 613.338 438.754 613.49 439.32C613.755 440.281 613.922 441.266 613.99 442.26C614.06 444 613.89 445 614 445Z" fill="#263238"/>
<path d="M614 444.65C613.23 444.325 612.394 444.188 611.56 444.25C610.66 444.25 609.763 444.361 608.89 444.58C608.352 444.696 607.834 444.888 607.35 445.15C607.042 445.306 606.792 445.558 606.639 445.868C606.486 446.178 606.437 446.53 606.5 446.87C606.585 447.195 606.756 447.492 606.995 447.728C607.235 447.964 607.533 448.13 607.86 448.21C608.415 448.35 608.996 448.35 609.55 448.21C610.441 447.98 611.276 447.568 612 447C612.682 446.532 613.275 445.946 613.75 445.27C613.051 445.673 612.382 446.128 611.75 446.63C611.051 447.108 610.267 447.447 609.44 447.63C608.981 447.745 608.5 447.745 608.04 447.63C607.823 447.574 607.623 447.463 607.462 447.307C607.301 447.151 607.183 446.955 607.12 446.74C607.086 446.526 607.123 446.308 607.224 446.117C607.325 445.926 607.485 445.772 607.68 445.68C608.113 445.448 608.573 445.27 609.05 445.15C609.88 444.918 610.731 444.771 611.59 444.71C613 444.6 613.93 444.75 614 444.65Z" fill="#263238"/>
<path d="M626.73 453.07C626.91 453.07 626.73 451.44 627.47 449.67C628.21 447.9 629.47 446.86 629.31 446.72C629.15 446.58 627.68 447.46 626.89 449.43C626.1 451.4 626.57 453.13 626.73 453.07Z" fill="#263238"/>
<path d="M600.44 454.81C600.898 455.087 601.384 455.314 601.89 455.49C603.258 456.02 604.661 456.455 606.09 456.79C610.811 457.824 615.639 458.28 620.47 458.15C626.12 458.09 631.21 457.84 634.9 457.69L639.26 457.46C639.797 457.454 640.333 457.397 640.86 457.29C640.328 457.204 639.788 457.177 639.25 457.21H634.88L620.47 457.49C615.679 457.609 610.889 457.22 606.18 456.33C602.58 455.62 600.48 454.69 600.44 454.81Z" fill="#263238"/>
<path d="M599.32 455.67C599.32 455.75 600.4 455.15 602.14 454.39C604.358 453.331 606.829 452.919 609.27 453.2C611.671 453.721 613.837 455.009 615.44 456.87C616.112 457.659 616.837 458.401 617.61 459.09C617.11 458.167 616.488 457.316 615.76 456.56C615.022 455.691 614.186 454.909 613.27 454.23C612.12 453.378 610.783 452.812 609.37 452.58C606.826 452.283 604.252 452.779 602 454C601.023 454.409 600.118 454.973 599.32 455.67V455.67Z" fill="#263238"/>
<path d="M560.65 429.54C560.65 429.54 525 452.88 523.71 453.85C521.79 455.3 523.99 462.21 527.32 461.01C528.89 460.45 558.81 452.12 562.03 450.87C565.25 449.62 573.91 442.56 573.91 442.56L560.65 429.54Z" fill="#364FAB"/>
<path d="M550.06 448C550.21 448 549.58 445.91 547.67 444.19C545.76 442.47 543.67 442 543.67 442.19C543.67 442.38 545.49 443.05 547.26 444.68C549.03 446.31 549.89 448.09 550.06 448Z" fill="#263238"/>
<path d="M553.26 445.11C553.41 445.06 552.72 443.26 551.09 441.61C549.46 439.96 547.69 439.21 547.63 439.36C547.57 439.51 549.1 440.46 550.63 442.05C552.16 443.64 553.09 445.2 553.26 445.11Z" fill="#263238"/>
<path d="M556.47 443.05C556.63 443.05 556.47 441.05 554.91 439.13C553.35 437.21 551.43 436.64 551.4 436.8C551.37 436.96 553.02 437.8 554.4 439.53C555.78 441.26 556.29 443.1 556.47 443.05Z" fill="#263238"/>
<path d="M554.36 438.62C554.45 438.62 553.96 437.62 553.55 435.95C553.316 434.983 553.175 433.995 553.13 433C553.096 432.414 553.096 431.826 553.13 431.24C553.131 430.978 553.196 430.721 553.32 430.49C553.373 430.414 553.453 430.36 553.543 430.339C553.634 430.319 553.729 430.334 553.81 430.38C554.22 430.54 554.43 431.23 554.62 431.78C554.797 432.329 554.914 432.896 554.97 433.47C555.062 434.47 555.032 435.478 554.88 436.47C554.63 438.16 554.3 439.19 554.4 439.22C554.871 438.396 555.183 437.49 555.32 436.55C555.538 435.532 555.615 434.489 555.55 433.45C555.507 432.829 555.393 432.215 555.21 431.62C555.114 431.303 554.997 430.992 554.86 430.69C554.707 430.316 554.423 430.01 554.06 429.83C553.846 429.728 553.603 429.706 553.375 429.766C553.146 429.826 552.946 429.966 552.81 430.16C552.62 430.482 552.517 430.847 552.51 431.22C552.47 431.833 552.47 432.448 552.51 433.06C552.58 434.079 552.772 435.086 553.08 436.06C553.312 436.998 553.75 437.872 554.36 438.62V438.62Z" fill="#263238"/>
<path d="M554.28 438.24C554.33 438.33 555.16 437.91 556.6 437.56C557.436 437.358 558.291 437.241 559.15 437.21C559.642 437.179 560.136 437.21 560.62 437.3C560.832 437.329 561.029 437.426 561.182 437.575C561.335 437.724 561.436 437.919 561.47 438.13C561.478 438.356 561.427 438.579 561.321 438.779C561.216 438.979 561.061 439.148 560.87 439.27C560.468 439.519 560.012 439.67 559.54 439.71C558.699 439.787 557.85 439.702 557.04 439.46C556.28 439.177 555.502 438.947 554.71 438.77C555.367 439.276 556.113 439.653 556.91 439.88C557.767 440.207 558.685 440.347 559.6 440.29C560.173 440.253 560.729 440.078 561.22 439.78C561.505 439.6 561.737 439.348 561.891 439.049C562.046 438.751 562.118 438.416 562.1 438.08C562.059 437.736 561.907 437.416 561.667 437.167C561.427 436.918 561.112 436.754 560.77 436.7C560.229 436.604 559.678 436.58 559.13 436.63C558.23 436.687 557.34 436.855 556.48 437.13C555.672 437.327 554.919 437.707 554.28 438.24V438.24Z" fill="#263238"/>
<path d="M531.86 459.71C531.86 459.77 532.46 459.35 532.74 458.33C533.026 457.002 532.786 455.615 532.07 454.46C531.718 453.836 531.317 453.24 530.87 452.68C530.529 452.192 530.122 451.755 529.66 451.38C529.334 451.114 528.938 450.947 528.52 450.9C528.23 450.9 528.07 450.96 528.08 451C528.561 451.141 529.005 451.387 529.38 451.72C529.754 452.12 530.089 452.555 530.38 453.02C530.783 453.58 531.157 454.161 531.5 454.76C532.135 455.803 532.409 457.026 532.28 458.24C532.167 458.737 532.027 459.228 531.86 459.71V459.71Z" fill="#263238"/>
<path d="M544.66 450.15C544.83 450.15 544.78 448.35 543.41 446.73C542.04 445.11 540.28 444.73 540.27 444.89C540.26 445.05 541.71 445.65 542.92 447.14C544.13 448.63 544.48 450.18 544.66 450.15Z" fill="#263238"/>
<path d="M570.24 443.82C569.687 444.135 569.162 444.496 568.67 444.9C567.259 445.879 565.793 446.777 564.28 447.59C562.017 448.778 559.679 449.817 557.28 450.7C554.58 451.7 551.55 452.65 548.35 453.58C541.93 455.43 536.12 457.12 531.93 458.38L526.93 459.9C526.315 460.057 525.716 460.272 525.14 460.54C525.77 460.453 526.392 460.316 527 460.13L532 458.81C536.22 457.66 542 456.04 548.46 454.19C551.67 453.26 554.71 452.29 557.46 451.24C559.87 450.326 562.21 449.236 564.46 447.98C565.975 447.128 567.422 446.161 568.79 445.09C569.317 444.719 569.803 444.293 570.24 443.82V443.82Z" fill="#263238"/>
<path d="M571.56 444.3C570.609 443.874 569.596 443.604 568.56 443.5C566.029 443.022 563.413 443.34 561.07 444.41C559.796 445.062 558.695 446.008 557.86 447.17C557.19 448.103 556.63 449.11 556.19 450.17C555.722 451.12 555.386 452.13 555.19 453.17C555.718 452.281 556.182 451.355 556.58 450.4C557.43 448.74 558.77 446.31 561.34 445.03C563.587 444.037 566.067 443.691 568.5 444.03C570.38 444.14 571.54 444.4 571.56 444.3Z" fill="#263238"/>
<path d="M634.77 371.16C634.77 371.16 645.46 375 645.51 387C645.59 410 599.09 435.3 599.09 435.3L537.2 394.3L533.32 392.73C533.32 392.73 616.86 361.31 634.77 371.16Z" fill="#263238"/>
<path d="M568.55 415C569.121 414.69 569.66 414.324 570.16 413.91C571.16 413.18 572.62 412.08 574.4 410.71C577.94 407.98 582.76 404.09 587.95 399.64C593.14 395.19 597.7 391.01 600.95 387.92C602.57 386.38 603.87 385.11 604.75 384.22C605.234 383.785 605.676 383.307 606.07 382.79C605.541 383.166 605.043 383.584 604.58 384.04L600.65 387.59C597.33 390.59 592.72 394.72 587.54 399.16C582.36 403.6 577.6 407.54 574.13 410.37L570 413.69C569.482 414.086 568.997 414.524 568.55 415V415Z" fill="#455A64"/>
<path d="M617.3 379.74C615.286 379.424 613.224 379.613 611.3 380.29C608.07 381.23 605.9 382.95 606 383.07C606.1 383.19 608.36 381.8 611.48 380.89C614.6 379.98 617.3 379.94 617.3 379.74Z" fill="#455A64"/>
<path d="M612 376.12C610.525 376.641 609.247 377.605 608.34 378.88C606.69 380.88 606.25 383.03 606.41 383.05C606.57 383.07 607.27 381.19 608.83 379.28C610.39 377.37 612.06 376.29 612 376.12Z" fill="#455A64"/>
<path d="M638.17 448.87C638.17 448.8 637.43 448.65 636.57 449.35C635.567 450.296 634.936 451.569 634.79 452.94C634.575 454.299 634.77 455.692 635.35 456.94C635.79 457.88 636.27 458.33 636.35 458.28C636.43 458.23 636.1 457.7 635.79 456.78C635.389 455.587 635.269 454.317 635.44 453.07C635.58 451.832 636.088 450.665 636.9 449.72C637.53 449 638.18 449 638.17 448.87Z" fill="#263238"/>
<path d="M630.34 338.53L612.74 386C612.249 387.323 611.361 388.462 610.197 389.26C609.034 390.059 607.651 390.478 606.24 390.46L509.32 389.18V381.82L545.32 383.13L560.58 335.79C560.834 335.011 561.327 334.332 561.99 333.851C562.653 333.369 563.451 333.11 564.27 333.11L626.79 333.29C627.411 333.301 628.019 333.461 628.565 333.757C629.111 334.052 629.577 334.475 629.925 334.989C630.273 335.502 630.493 336.092 630.565 336.709C630.637 337.325 630.56 337.95 630.34 338.53Z" fill="#E0E0E0"/>
<path d="M630.34 338.53C630.34 338.53 630.34 338.53 630.34 338.38C630.393 338.237 630.433 338.09 630.46 337.94C630.604 337.352 630.604 336.738 630.46 336.15C630.258 335.371 629.814 334.677 629.192 334.166C628.571 333.656 627.803 333.356 627 333.31C626.34 333.31 625.61 333.31 624.85 333.31H598.77H580.5H570.23H564.84C563.941 333.221 563.038 333.421 562.26 333.88C561.486 334.366 560.915 335.116 560.65 335.99L545.43 383.25V383.36H545.31L509.31 382.06L509.47 381.9V389.26L509.32 389.11L570.26 389.92L596.75 390.29L602.86 390.37H605.86C606.815 390.427 607.771 390.287 608.67 389.96C609.543 389.642 610.34 389.145 611.01 388.501C611.68 387.857 612.208 387.08 612.56 386.22C613.2 384.5 613.83 382.81 614.45 381.17C619.36 368 623.33 357.36 626.07 350C627.45 346.34 628.51 343.49 629.24 341.55C629.97 339.61 630.36 338.62 630.36 338.62C630.36 338.62 630.01 339.62 629.3 341.62L626.16 350C623.44 357.37 619.51 368 614.63 381.2L612.75 386.27C612.387 387.157 611.845 387.959 611.156 388.625C610.468 389.291 609.648 389.807 608.75 390.14C607.819 390.481 606.83 390.631 605.84 390.58H602.84L596.74 390.5L570.25 390.17L509.3 389.38H509.15V381.7H509.31L545.31 383.02L545.16 383.13L560.42 335.88C560.7 334.945 561.311 334.145 562.14 333.63C562.961 333.148 563.913 332.938 564.86 333.03H570.25H580.52L598.79 333.11L624.87 333.23C625.63 333.23 626.35 333.23 627.03 333.23C627.85 333.284 628.632 333.596 629.262 334.123C629.893 334.65 630.34 335.363 630.54 336.16C630.688 336.751 630.688 337.369 630.54 337.96C630.49 338.155 630.423 338.346 630.34 338.53V338.53Z" fill="#263238"/>
<path d="M598 362C598 357.029 593.971 353 589 353C584.029 353 580 357.029 580 362C580 366.971 584.029 371 589 371C593.971 371 598 366.971 598 362Z" fill="#DAE5EF"/>
<path d="M584.077 367.4C583.974 367.4 583.881 367.364 583.798 367.292C583.726 367.219 583.69 367.126 583.69 367.013V356.957C583.69 356.843 583.726 356.75 583.798 356.678C583.881 356.606 583.974 356.57 584.077 356.57H585.748C585.913 356.57 586.036 356.616 586.119 356.709C586.212 356.792 586.269 356.859 586.289 356.91L589.012 361.799L591.735 356.91C591.766 356.859 591.818 356.792 591.89 356.709C591.972 356.616 592.101 356.57 592.277 356.57H593.932C594.045 356.57 594.138 356.606 594.211 356.678C594.293 356.75 594.334 356.843 594.334 356.957V367.013C594.334 367.126 594.293 367.219 594.211 367.292C594.138 367.364 594.045 367.4 593.932 367.4H592.091C591.977 367.4 591.879 367.364 591.797 367.292C591.725 367.219 591.689 367.126 591.689 367.013V361.211L589.94 364.445C589.899 364.538 589.837 364.62 589.755 364.692C589.672 364.765 589.559 364.801 589.414 364.801H588.61C588.465 364.801 588.352 364.765 588.269 364.692C588.187 364.62 588.12 364.538 588.068 364.445L586.32 361.211V367.013C586.32 367.126 586.284 367.219 586.212 367.292C586.14 367.364 586.047 367.4 585.933 367.4H584.077Z" fill="#364FAB"/>
<path d="M591.892 356.709C591.82 356.792 591.768 356.859 591.737 356.91L591.691 361.211V367.013C591.691 367.126 591.727 367.219 591.799 367.292C591.882 367.364 591.98 367.4 592.093 367.4H593.934C594.048 367.4 594.141 367.364 594.213 367.292C594.295 367.219 594.337 367.126 594.337 367.013V356.957C594.337 356.843 594.295 356.75 594.213 356.678C594.141 356.606 594.048 356.57 593.934 356.57H592.279C592.104 356.57 591.975 356.616 591.892 356.709Z" fill="#181E34"/>
<path d="M583.798 356.678C583.726 356.75 583.69 356.843 583.69 356.957L586.32 361.211L588.068 364.445C588.12 364.538 588.187 364.62 588.269 364.692C588.352 364.765 588.465 364.801 588.61 364.801H589.414C589.559 364.801 589.672 364.765 589.755 364.692C589.837 364.62 589.899 364.538 589.94 364.445L589.012 361.799L586.289 356.91C586.269 356.859 586.212 356.792 586.119 356.709C586.036 356.616 585.913 356.57 585.748 356.57H584.077C583.974 356.57 583.881 356.606 583.798 356.678Z" fill="#181E34"/>
<path d="M609.52 437.85C609.52 437.85 522.18 381.91 518.33 379.71C515.05 377.84 506.27 372.44 497.62 374.83C488.97 377.22 481.21 385 477.33 396.31C475.12 402.79 474.07 413.84 473.58 422.13C472.919 432.057 476.147 441.851 482.58 449.44C485.426 452.98 489.2 455.659 493.48 457.18C494.39 457.46 495.34 457.7 496.31 457.91C512.84 461.5 529.83 454.08 539.12 439.91L541.12 436.81C541.12 436.81 598.32 457.81 599.21 457.52L609.52 437.85Z" fill="#263238"/>
<path d="M522.84 382.81C522.84 382.81 522.76 382.81 522.62 382.68L522.01 382.26C521.47 381.89 520.68 381.35 519.65 380.68C516.741 378.77 513.629 377.191 510.37 375.97C508.12 375.144 505.762 374.648 503.37 374.5C500.642 374.386 497.919 374.832 495.37 375.81C492.541 376.903 489.927 378.487 487.65 380.49C486.431 381.534 485.285 382.66 484.22 383.86C483.143 385.096 482.192 386.436 481.38 387.86C479.773 390.7 478.511 393.721 477.62 396.86C476.79 399.91 476.13 402.92 475.51 405.76C474.356 410.791 473.687 415.921 473.51 421.08C473.448 424.561 473.712 428.039 474.3 431.47C474.49 432.69 474.71 433.62 474.84 434.26L474.98 434.99C474.993 435.073 474.993 435.157 474.98 435.24C474.946 435.163 474.919 435.083 474.9 435C474.9 434.81 474.78 434.57 474.71 434.28C474.54 433.65 474.29 432.73 474.07 431.51C473.386 428.076 473.051 424.582 473.07 421.08C473.204 415.899 473.85 410.744 475 405.69C475.62 402.83 476.26 399.84 477.08 396.75C477.988 393.571 479.267 390.51 480.89 387.63C481.719 386.168 482.691 384.791 483.79 383.52C484.873 382.301 486.039 381.158 487.28 380.1C489.607 378.068 492.275 376.463 495.16 375.36C497.785 374.365 500.587 373.923 503.39 374.06C505.813 374.239 508.197 374.764 510.47 375.62C513.744 376.874 516.857 378.516 519.74 380.51C520.74 381.21 521.53 381.78 522.05 382.18L522.63 382.64C522.708 382.686 522.779 382.743 522.84 382.81V382.81Z" fill="#455A64"/>
<path d="M501.35 422.06C501.506 422.142 501.666 422.216 501.83 422.28L503.26 422.84L508.8 425L529.4 432.76C538.15 436.02 548.64 439.91 560.4 444.19C572.16 448.47 585.19 453.19 599.11 457.87L599.37 457.95L599.49 457.72C601.67 453.54 603.98 449.14 606.32 444.67L609.8 438L609.94 437.74L609.69 437.59L543 395.25L523 382.61L517.56 379.21L516.14 378.35C515.982 378.248 515.818 378.154 515.65 378.07C515.65 378.07 515.8 378.19 516.11 378.4L517.5 379.32L522.88 382.81L542.81 395.61L609.39 438.12L609.28 437.71C608.18 439.82 607 442.08 605.8 444.36L598.98 457.41L599.35 457.25C585.44 452.55 572.4 447.88 560.63 443.64L529.63 432.35L508.96 424.77L503.38 422.77L501.93 422.26L501.35 422.06Z" fill="#455A64"/>
<path d="M505.87 236.47C504.232 233.529 502.931 230.412 501.99 227.18C501.051 223.921 501.235 220.442 502.51 217.3C503.32 215.51 504.6 213.94 505.24 212.08C506.11 209.52 505.75 206.5 507.34 204.31C509.81 200.88 515.11 201.68 518.94 199.89C521.94 198.49 524.01 195.48 527.14 194.47C529.88 193.59 532.87 194.47 535.51 195.57C538.15 196.67 540.74 198.14 543.59 198.51C545.639 198.625 547.692 198.625 549.74 198.51C551.817 198.424 553.847 199.14 555.41 200.51C556.85 201.96 557.15 204.65 555.59 205.98C559.18 205.37 562.59 208.98 562.51 212.59C562.43 216.2 559.72 219.43 556.41 220.95C553.1 222.47 549.33 222.56 545.7 222.27C535.43 221.47 525.11 217.57 518.12 210.01" fill="#364FAB"/>
<path d="M508.08 223.62L501.08 274.47C500.797 276.519 500.934 278.604 501.481 280.599C502.029 282.593 502.977 284.456 504.266 286.073C505.556 287.69 507.161 289.028 508.984 290.006C510.807 290.983 512.809 291.58 514.87 291.76V291.76C518.777 292.099 522.665 290.923 525.729 288.475C528.793 286.027 530.798 282.495 531.33 278.61C531.85 274.78 532.33 271.61 532.33 271.2C532.33 271.2 545.44 271.76 548.14 259.08C549.44 252.95 551.14 240.08 552.46 228.47C553.162 222.454 551.578 216.394 548.022 211.491C544.465 206.588 539.197 203.201 533.26 202L532.03 201.76C518.65 199.87 509.58 210.19 508.08 223.62Z" fill="#FFBE9D"/>
<path d="M532.45 271C526.56 269.941 521.116 267.157 516.81 263C516.81 263 518.9 272.94 531.81 274.33L532.45 271Z" fill="#EB996E"/>
<path d="M546.82 239.28C546.73 239.755 546.458 240.175 546.062 240.452C545.666 240.728 545.177 240.839 544.7 240.76C544.467 240.732 544.242 240.657 544.038 240.541C543.833 240.425 543.654 240.269 543.511 240.083C543.368 239.897 543.263 239.684 543.203 239.457C543.142 239.23 543.128 238.993 543.16 238.76C543.248 238.286 543.518 237.864 543.912 237.586C544.306 237.308 544.794 237.194 545.27 237.27C545.505 237.297 545.733 237.371 545.939 237.487C546.145 237.604 546.325 237.76 546.47 237.948C546.614 238.135 546.72 238.35 546.78 238.578C546.84 238.807 546.854 239.046 546.82 239.28V239.28Z" fill="#263238"/>
<path d="M548.54 234.16C548.27 234.35 547.1 233.06 545.14 232.68C543.18 232.3 541.56 232.98 541.4 232.68C541.32 232.55 541.63 232.17 542.4 231.84C543.344 231.43 544.392 231.322 545.4 231.53C546.419 231.728 547.347 232.246 548.05 233.01C548.56 233.61 548.68 234.08 548.54 234.16Z" fill="#263238"/>
<path d="M528.6 236.13C528.51 236.605 528.238 237.025 527.841 237.302C527.445 237.579 526.957 237.689 526.48 237.61C526.246 237.583 526.02 237.51 525.815 237.394C525.61 237.278 525.431 237.122 525.287 236.936C525.144 236.749 525.039 236.536 524.979 236.308C524.92 236.08 524.906 235.843 524.94 235.61C525.028 235.136 525.298 234.716 525.693 234.439C526.087 234.162 526.574 234.051 527.05 234.13C527.284 234.157 527.51 234.231 527.716 234.347C527.921 234.462 528.101 234.618 528.246 234.804C528.39 234.991 528.496 235.204 528.557 235.431C528.617 235.659 528.632 235.897 528.6 236.13Z" fill="#263238"/>
<path d="M529.27 230.69C528.99 230.88 527.82 229.59 525.86 229.2C523.9 228.81 522.28 229.51 522.12 229.2C522.04 229.07 522.35 228.69 523.12 228.36C524.064 227.95 525.112 227.842 526.12 228.05C527.136 228.249 528.063 228.763 528.77 229.52C529.28 230.14 529.4 230.6 529.27 230.69Z" fill="#263238"/>
<path d="M533.46 246.6C534.555 246.478 535.66 246.499 536.75 246.66C537.26 246.71 537.75 246.66 537.9 246.38C538.059 245.876 538.059 245.334 537.9 244.83C537.68 243.53 537.44 242.17 537.19 240.74C536.19 234.92 535.63 230.18 535.86 230.14C536.09 230.1 537.07 234.79 538.04 240.61C538.26 242.04 538.48 243.4 538.69 244.71C538.877 245.372 538.831 246.078 538.56 246.71C538.448 246.875 538.3 247.013 538.126 247.112C537.953 247.21 537.759 247.268 537.56 247.28C537.269 247.298 536.976 247.278 536.69 247.22C535.591 247.151 534.506 246.942 533.46 246.6V246.6Z" fill="#263238"/>
<path d="M527.44 246.8C527.76 246.8 527.34 248.97 528.86 250.8C530.38 252.63 532.68 252.89 532.63 253.19C532.63 253.33 532.05 253.5 531.09 253.34C529.843 253.105 528.717 252.44 527.91 251.46C527.158 250.514 526.8 249.314 526.91 248.11C527 247.24 527.3 246.76 527.44 246.8Z" fill="#263238"/>
<path d="M531.3 223.13C531 223.62 529.1 222.98 526.75 222.8C524.4 222.62 522.43 222.87 522.22 222.34C522.13 222.08 522.55 221.65 523.4 221.28C524.525 220.855 525.732 220.689 526.93 220.795C528.128 220.9 529.287 221.275 530.32 221.89C531.09 222.39 531.43 222.9 531.3 223.13Z" fill="#364FAB"/>
<path d="M549 228.36C548.56 228.74 547.31 228.01 545.7 227.66C544.09 227.31 542.7 227.36 542.42 226.84C542.33 226.58 542.63 226.18 543.32 225.84C544.224 225.498 545.21 225.432 546.152 225.651C547.094 225.87 547.949 226.364 548.61 227.07C549.05 227.68 549.15 228.18 549 228.36Z" fill="#364FAB"/>
<path d="M507.24 233.24C507.04 233.1 499.02 228.91 497.56 237.66C496.1 246.41 505.19 246.07 505.24 245.82C505.29 245.57 507.24 233.24 507.24 233.24Z" fill="#FFBE9D"/>
<path d="M503.12 242.06C503.12 242.06 502.95 242.14 502.68 242.21C502.29 242.308 501.878 242.25 501.53 242.05C500.66 241.55 500.13 239.96 500.35 238.37C500.455 237.617 500.725 236.897 501.14 236.26C501.267 235.998 501.455 235.771 501.688 235.597C501.921 235.423 502.193 235.308 502.48 235.26C502.663 235.244 502.846 235.292 502.997 235.396C503.149 235.5 503.259 235.653 503.31 235.83C503.39 236.1 503.31 236.26 503.31 236.28C503.31 236.3 503.52 236.17 503.51 235.8C503.498 235.574 503.41 235.359 503.26 235.19C503.048 234.968 502.757 234.838 502.45 234.83C502.079 234.841 501.716 234.947 501.398 235.138C501.079 235.328 500.815 235.598 500.63 235.92C500.131 236.615 499.812 237.422 499.7 238.27C499.46 240.04 500.09 241.84 501.29 242.42C501.515 242.526 501.761 242.581 502.01 242.581C502.259 242.581 502.505 242.526 502.73 242.42C503.07 242.27 503.15 242.08 503.12 242.06Z" fill="#EB996E"/>
<path d="M555 216.66C553.5 219.89 545.78 221.14 540.12 219.43C534.91 217.86 533.01 214.55 529.7 211.66C527.6 209.83 527.6 209.83 524.17 209.48C521.4 209.19 519.17 211.95 517.08 213.78C518.25 220.78 515.16 227.62 512.14 233.99C511.886 234.734 511.389 235.372 510.73 235.8C509.55 236.38 508.13 235.46 507.42 234.34C506.424 232.456 505.996 230.323 506.19 228.2C506.218 223.36 507.207 218.574 509.1 214.12C510.997 209.634 514.177 205.807 518.24 203.12C523.446 199.938 529.686 198.905 535.64 200.24C541.559 201.61 546.896 204.812 550.89 209.39C552.841 211.416 554.254 213.898 555 216.61" fill="#364FAB"/>
<path d="M537.24 237.8C537.32 237.8 537.24 237.05 537.64 235.8C538.151 234.001 539.241 232.419 540.74 231.3C541.837 230.489 543.119 229.962 544.47 229.769C545.821 229.575 547.199 229.72 548.48 230.19C549.992 230.744 551.305 231.737 552.25 233.04C553.27 234.431 553.819 236.111 553.819 237.835C553.819 239.56 553.27 241.239 552.25 242.63C551.305 243.934 549.992 244.926 548.48 245.48C547.198 245.951 545.82 246.095 544.468 245.9C543.117 245.704 541.836 245.175 540.74 244.36C539.24 243.246 538.15 241.668 537.64 239.87C537.29 238.59 537.32 237.87 537.24 237.87C537.217 238.053 537.217 238.238 537.24 238.42C537.237 238.942 537.297 239.463 537.42 239.97C537.842 241.889 538.925 243.599 540.48 244.8C541.402 245.504 542.455 246.017 543.578 246.308C544.701 246.599 545.871 246.663 547.019 246.495C548.167 246.328 549.27 245.932 550.263 245.332C551.256 244.731 552.118 243.939 552.8 243C553.922 241.497 554.529 239.671 554.529 237.795C554.529 235.919 553.922 234.093 552.8 232.59C552.112 231.652 551.243 230.861 550.244 230.265C549.245 229.668 548.136 229.279 546.984 229.118C545.831 228.958 544.658 229.03 543.534 229.331C542.41 229.632 541.358 230.155 540.44 230.87C538.886 232.068 537.803 233.774 537.38 235.69C537.257 236.201 537.197 236.725 537.2 237.25C537.188 237.434 537.201 237.62 537.24 237.8Z" fill="#263238"/>
<path d="M516.49 234.18C516.57 234.18 516.49 233.43 516.89 232.18C517.399 230.379 518.489 228.797 519.99 227.68C521.087 226.867 522.368 226.34 523.72 226.146C525.071 225.952 526.449 226.098 527.73 226.57C529.241 227.12 530.554 228.109 531.5 229.41C532.521 230.802 533.071 232.484 533.071 234.21C533.071 235.936 532.521 237.618 531.5 239.01C530.558 240.314 529.244 241.304 527.73 241.85C526.449 242.322 525.071 242.468 523.72 242.274C522.368 242.081 521.087 241.553 519.99 240.74C518.489 239.623 517.399 238.041 516.89 236.24C516.54 234.97 516.57 234.24 516.49 234.24C516.467 234.419 516.467 234.601 516.49 234.78C516.487 235.305 516.547 235.829 516.67 236.34C517.092 238.259 518.175 239.969 519.73 241.17C520.65 241.884 521.703 242.406 522.827 242.706C523.952 243.007 525.125 243.079 526.278 242.919C527.431 242.758 528.54 242.369 529.54 241.773C530.54 241.177 531.41 240.388 532.1 239.45C533.22 237.944 533.825 236.117 533.825 234.24C533.825 232.363 533.22 230.536 532.1 229.03C531.412 228.092 530.543 227.301 529.544 226.705C528.545 226.108 527.436 225.719 526.284 225.558C525.131 225.398 523.958 225.47 522.834 225.771C521.71 226.072 520.658 226.595 519.74 227.31C518.187 228.513 517.105 230.222 516.68 232.14C516.557 232.651 516.497 233.175 516.5 233.7C516.478 233.859 516.474 234.02 516.49 234.18Z" fill="#263238"/>
<path d="M533.59 234.48C533.68 234.65 534.79 234.13 536.08 234.53C537.37 234.93 538.02 235.96 538.19 235.86C538.36 235.76 538.19 235.49 537.94 235.05C537.542 234.474 536.959 234.051 536.289 233.849C535.619 233.648 534.9 233.68 534.25 233.94C533.76 234.14 533.54 234.4 533.59 234.48Z" fill="#263238"/>
<path d="M504.74 231.94C504.74 232.14 507.53 232.25 510.97 232.21C514.41 232.17 517.19 231.96 517.19 231.76C517.19 231.56 514.4 231.45 510.96 231.5C507.52 231.55 504.74 231.74 504.74 231.94Z" fill="#263238"/>
<path d="M559.13 208.31C559.129 208.592 559.082 208.873 558.99 209.14C558.742 209.879 558.287 210.531 557.68 211.02C556.783 211.756 555.686 212.206 554.53 212.31C553.137 212.422 551.734 212.348 550.36 212.09C547.863 211.721 545.386 211.224 542.94 210.6C542 210.35 541.24 210.14 540.73 209.98L540.13 209.79L539.93 209.71C539.93 209.71 540.01 209.71 540.14 209.71L540.75 209.86L542.97 210.41C544.85 210.86 547.47 211.41 550.39 211.85C551.748 212.105 553.133 212.183 554.51 212.08C555.633 211.988 556.705 211.567 557.59 210.87C558.186 210.405 558.643 209.786 558.91 209.08C559.09 208.61 559.1 208.3 559.13 208.31Z" fill="white"/>
<path d="M561.07 210.29C560.947 211.124 560.694 211.934 560.32 212.69C559.453 214.547 558.049 216.1 556.29 217.15C554.53 218.2 552.496 218.698 550.45 218.58C549.611 218.552 548.781 218.393 547.99 218.11C548.213 218.136 548.434 218.18 548.65 218.24C549.248 218.351 549.853 218.418 550.46 218.44C552.47 218.513 554.457 218.003 556.182 216.97C557.907 215.937 559.296 214.426 560.18 212.62C560.46 212.079 560.687 211.514 560.86 210.93C560.916 210.712 560.986 210.498 561.07 210.29V210.29Z" fill="white"/>
</svg>
