<svg width="686" height="387" viewBox="0 0 686 387" fill="none" xmlns="http://www.w3.org/2000/svg">
<path d="M85.1399 29.09H596C597.787 29.09 599.502 29.8 600.766 31.064C602.03 32.328 602.74 34.042 602.74 35.83V362C602.74 365.864 601.205 369.57 598.472 372.302C595.74 375.035 592.034 376.57 588.17 376.57H91.9999C90.0829 376.575 88.1839 376.202 86.4119 375.472C84.6389 374.742 83.0279 373.67 81.6709 372.317C80.3139 370.963 79.2369 369.355 78.5029 367.585C77.7679 365.814 77.3899 363.917 77.3899 362V36.85C77.3879 35.831 77.5879 34.822 77.9769 33.881C78.3659 32.94 78.9359 32.084 79.6559 31.363C80.3759 30.643 81.2309 30.071 82.1719 29.681C83.1119 29.291 84.1209 29.09 85.1399 29.09Z" fill="#455064"/>
<path d="M55.4199 350.83H624.63V367.5C624.63 371.139 623.184 374.629 620.611 377.202C618.038 379.775 614.549 381.22 610.91 381.22H69.1399C65.5012 381.22 62.0114 379.775 59.4384 377.202C56.8654 374.629 55.4199 371.139 55.4199 367.5V350.83Z" fill="#455064"/>
<path d="M587.19 42.9H91.49V336.3H587.19V42.9Z" fill="#E0E0E0"/>
<path d="M288.29 350.83L295.35 362.06H394.74L401.3 350.83H288.29Z" fill="#30303F"/>
<path d="M573.68 59.9H106.2V336.3H573.68V59.9Z" fill="#181E34"/>
<path d="M142.07 328.18C141.83 328.18 141.63 269.32 141.63 196.72C141.63 124.12 141.83 65.23 142.07 65.23C142.31 65.23 142.51 124.09 142.51 196.72C142.51 269.35 142.31 328.18 142.07 328.18Z" fill="#E0E0E0"/>
<path d="M132.64 89.07C132.64 89.31 129.24 89.51 125.05 89.51C120.86 89.51 117.45 89.31 117.45 89.07C117.45 88.83 120.85 88.63 125.05 88.63C129.25 88.63 132.64 88.83 132.64 89.07Z" fill="#E0E0E0"/>
<path d="M133.22 74.15C133.22 74.39 129.82 74.59 125.63 74.59C121.44 74.59 118.04 74.39 118.04 74.15C118.04 73.91 121.44 73.71 125.63 73.71C129.82 73.71 133.22 73.91 133.22 74.15Z" fill="#E0E0E0"/>
<path d="M132.64 105.15C132.64 105.39 129.24 105.59 125.05 105.59C120.86 105.59 117.45 105.39 117.45 105.15C117.45 104.91 120.85 104.71 125.05 104.71C129.25 104.71 132.64 104.91 132.64 105.15Z" fill="#E0E0E0"/>
<path d="M132.64 121.23C132.64 121.48 129.24 121.67 125.05 121.67C120.86 121.67 117.45 121.48 117.45 121.23C117.45 120.98 120.85 120.8 125.05 120.8C129.25 120.8 132.64 121 132.64 121.23Z" fill="#E0E0E0"/>
<path d="M132.64 137.32C132.64 137.56 129.24 137.76 125.05 137.76C120.86 137.76 117.45 137.56 117.45 137.32C117.45 137.08 120.85 136.88 125.05 136.88C129.25 136.88 132.64 137.07 132.64 137.32Z" fill="#E0E0E0"/>
<path d="M132.64 153.4C132.64 153.64 129.24 153.84 125.05 153.84C120.86 153.84 117.45 153.64 117.45 153.4C117.45 153.16 120.85 152.96 125.05 152.96C129.25 152.96 132.64 153.16 132.64 153.4Z" fill="#E0E0E0"/>
<path d="M132.64 169.48C132.64 169.72 129.24 169.92 125.05 169.92C120.86 169.92 117.45 169.72 117.45 169.48C117.45 169.24 120.85 169.04 125.05 169.04C129.25 169.04 132.64 169.24 132.64 169.48Z" fill="#E0E0E0"/>
<path d="M132.64 185.56C132.64 185.81 129.24 186 125.05 186C120.86 186 117.45 185.81 117.45 185.56C117.45 185.31 120.85 185.13 125.05 185.13C129.25 185.13 132.64 185.32 132.64 185.56Z" fill="#E0E0E0"/>
<path d="M132.64 201.65C132.64 201.89 129.24 202.08 125.05 202.08C120.86 202.08 117.45 201.89 117.45 201.65C117.45 201.41 120.85 201.21 125.05 201.21C129.25 201.21 132.64 201.4 132.64 201.65Z" fill="#E0E0E0"/>
<path d="M132.64 217.73C132.64 217.97 129.24 218.17 125.05 218.17C120.86 218.17 117.45 217.97 117.45 217.73C117.45 217.49 120.85 217.29 125.05 217.29C129.25 217.29 132.64 217.49 132.64 217.73Z" fill="#E0E0E0"/>
<path d="M132.64 233.81C132.64 234.05 129.24 234.25 125.05 234.25C120.86 234.25 117.45 234.05 117.45 233.81C117.45 233.57 120.85 233.37 125.05 233.37C129.25 233.37 132.64 233.57 132.64 233.81Z" fill="#E0E0E0"/>
<path d="M132.64 249.89C132.64 250.14 129.24 250.33 125.05 250.33C120.86 250.33 117.45 250.14 117.45 249.89C117.45 249.64 120.85 249.46 125.05 249.46C129.25 249.46 132.64 249.65 132.64 249.89Z" fill="#E0E0E0"/>
<path d="M132.64 266C132.64 266.24 129.24 266.43 125.05 266.43C120.86 266.43 117.45 266.24 117.45 266C117.45 265.76 120.85 265.56 125.05 265.56C129.25 265.56 132.64 265.73 132.64 266Z" fill="#E0E0E0"/>
<path d="M132.64 282.06C132.64 282.3 129.24 282.5 125.05 282.5C120.86 282.5 117.45 282.3 117.45 282.06C117.45 281.82 120.85 281.62 125.05 281.62C129.25 281.62 132.64 281.82 132.64 282.06Z" fill="#E0E0E0"/>
<path d="M132.64 298.14C132.64 298.38 129.24 298.58 125.05 298.58C120.86 298.58 117.45 298.38 117.45 298.14C117.45 297.9 120.85 297.7 125.05 297.7C129.25 297.7 132.64 297.9 132.64 298.14Z" fill="#E0E0E0"/>
<path d="M132.64 314.22C132.64 314.47 129.24 314.66 125.05 314.66C120.86 314.66 117.45 314.47 117.45 314.22C117.45 313.97 120.85 313.78 125.05 313.78C129.25 313.78 132.64 314 132.64 314.22Z" fill="#E0E0E0"/>
<path d="M193.51 88.12C193.51 88.36 184.69 88.56 173.81 88.56C162.93 88.56 154.1 88.36 154.1 88.12C154.1 87.88 162.92 87.68 173.81 87.68C184.7 87.68 193.51 87.88 193.51 88.12Z" fill="#364FAB"/>
<path d="M193.51 314.22C193.51 314.47 184.69 314.66 173.81 314.66C162.93 314.66 154.1 314.47 154.1 314.22C154.1 313.97 162.92 313.78 173.81 313.78C184.7 313.78 193.51 314 193.51 314.22Z" fill="#364FAB"/>
<path d="M248.4 121.23C248.4 121.48 231.89 121.67 211.53 121.67C191.17 121.67 174.66 121.48 174.66 121.23C174.66 120.98 191.16 120.8 211.53 120.8C231.9 120.8 248.4 121 248.4 121.23Z" fill="#364FAB"/>
<path d="M333.68 121.23C333.68 121.48 317.17 121.67 296.81 121.67C276.45 121.67 259.93 121.48 259.93 121.23C259.93 120.98 276.44 120.8 296.81 120.8C317.18 120.8 333.68 121 333.68 121.23Z" fill="#E0E0E0"/>
<path d="M301.09 137.32C301.09 137.56 276.76 137.76 246.75 137.76C216.74 137.76 192.41 137.56 192.41 137.32C192.41 137.08 216.73 136.88 246.75 136.88C276.77 136.88 301.09 137.07 301.09 137.32Z" fill="#E0E0E0"/>
<path d="M301.09 153.4C301.09 153.64 276.76 153.84 246.75 153.84C216.74 153.84 192.41 153.64 192.41 153.4C192.41 153.16 216.73 152.96 246.75 152.96C276.77 152.96 301.09 153.16 301.09 153.4Z" fill="#E0E0E0"/>
<path d="M375.9 201.65C375.9 201.89 351.56 202.08 321.56 202.08C291.56 202.08 267.21 201.89 267.21 201.65C267.21 201.41 291.54 201.21 321.56 201.21C351.58 201.21 375.9 201.4 375.9 201.65Z" fill="#E0E0E0"/>
<path d="M343.61 169.48C343.61 169.72 319.28 169.92 289.28 169.92C259.28 169.92 234.93 169.72 234.93 169.48C234.93 169.24 259.26 169.04 289.28 169.04C319.3 169.04 343.61 169.24 343.61 169.48Z" fill="#E0E0E0"/>
<path d="M476.42 169.48C476.42 169.72 452.09 169.92 422.09 169.92C392.09 169.92 367.74 169.72 367.74 169.48C367.74 169.24 392.07 169.04 422.09 169.04C452.11 169.04 476.42 169.24 476.42 169.48Z" fill="#E0E0E0"/>
<path d="M430.24 137.32C430.24 137.56 405.9 137.76 375.9 137.76C345.9 137.76 321.56 137.56 321.56 137.32C321.56 137.08 345.88 136.88 375.9 136.88C405.92 136.88 430.24 137.07 430.24 137.32Z" fill="#364FAB"/>
<path d="M505.31 201.65C505.31 201.89 480.98 202.08 450.97 202.08C420.96 202.08 396.63 201.89 396.63 201.65C396.63 201.41 420.95 201.21 450.97 201.21C480.99 201.21 505.31 201.4 505.31 201.65Z" fill="#364FAB"/>
<path d="M490.32 153.4C490.32 153.64 452.54 153.84 405.94 153.84C359.34 153.84 321.56 153.64 321.56 153.4C321.56 153.16 359.33 152.96 405.94 152.96C452.55 152.96 490.32 153.16 490.32 153.4Z" fill="#455064"/>
<path d="M193.51 105.15C193.51 105.39 184.69 105.59 173.81 105.59C162.93 105.59 154.1 105.39 154.1 105.15C154.1 104.91 162.92 104.71 173.81 104.71C184.7 104.71 193.51 104.91 193.51 105.15Z" fill="#364FAB"/>
<path d="M193.51 298.14C193.51 298.38 184.69 298.58 173.81 298.58C162.93 298.58 154.1 298.38 154.1 298.14C154.1 297.9 162.92 297.7 173.81 297.7C184.7 297.7 193.51 297.9 193.51 298.14Z" fill="#364FAB"/>
<path d="M213 169.48C213 169.72 204.18 169.92 193.29 169.92C182.4 169.92 173.58 169.72 173.58 169.48C173.58 169.24 182.41 169.04 193.29 169.04C204.17 169.04 213 169.24 213 169.48Z" fill="#364FAB"/>
<path d="M528.93 169.48C528.93 169.72 520.11 169.92 509.23 169.92C498.35 169.92 489.52 169.72 489.52 169.48C489.52 169.24 498.34 169.04 509.23 169.04C520.12 169.04 528.93 169.24 528.93 169.48Z" fill="#364FAB"/>
<path d="M248.4 233.72C248.4 233.96 231.89 234.16 211.53 234.16C191.17 234.16 174.66 233.96 174.66 233.72C174.66 233.48 191.16 233.28 211.53 233.28C231.9 233.28 248.4 233.47 248.4 233.72Z" fill="#364FAB"/>
<path d="M333.68 233.72C333.68 233.96 317.17 234.16 296.81 234.16C276.45 234.16 259.93 233.96 259.93 233.72C259.93 233.48 276.44 233.28 296.81 233.28C317.18 233.28 333.68 233.47 333.68 233.72Z" fill="#E0E0E0"/>
<path d="M301.09 249.8C301.09 250.04 276.76 250.24 246.75 250.24C216.74 250.24 192.41 250.04 192.41 249.8C192.41 249.56 216.73 249.36 246.75 249.36C276.77 249.36 301.09 249.56 301.09 249.8Z" fill="#E0E0E0"/>
<path d="M301.09 265.88C301.09 266.12 276.76 266.32 246.75 266.32C216.74 266.32 192.41 266.12 192.41 265.88C192.41 265.64 216.73 265.44 246.75 265.44C276.77 265.44 301.09 265.64 301.09 265.88Z" fill="#E0E0E0"/>
<path d="M343.61 282C343.61 282.25 319.28 282.44 289.28 282.44C259.28 282.44 234.93 282.25 234.93 282C234.93 281.75 259.26 281.57 289.28 281.57C319.3 281.57 343.61 281.72 343.61 282Z" fill="#E0E0E0"/>
<path d="M476.42 282C476.42 282.25 452.09 282.44 422.09 282.44C392.09 282.44 367.74 282.25 367.74 282C367.74 281.75 392.07 281.57 422.09 281.57C452.11 281.57 476.42 281.72 476.42 282Z" fill="#E0E0E0"/>
<path d="M430.24 249.8C430.24 250.04 405.9 250.24 375.9 250.24C345.9 250.24 321.56 250.04 321.56 249.8C321.56 249.56 345.88 249.36 375.9 249.36C405.92 249.36 430.24 249.56 430.24 249.8Z" fill="#364FAB"/>
<path d="M490.32 265.88C490.32 266.12 452.54 266.32 405.94 266.32C359.34 266.32 321.56 266.12 321.56 265.88C321.56 265.64 359.33 265.44 405.94 265.44C452.55 265.44 490.32 265.64 490.32 265.88Z" fill="#455064"/>
<path d="M213 282C213 282.25 204.18 282.44 193.29 282.44C182.4 282.44 173.58 282.25 173.58 282C173.58 281.75 182.41 281.57 193.29 281.57C204.17 281.57 213 281.72 213 282Z" fill="#364FAB"/>
<path d="M528.93 282C528.93 282.25 520.11 282.44 509.23 282.44C498.35 282.44 489.52 282.25 489.52 282C489.52 281.75 498.34 281.57 509.23 281.57C520.12 281.57 528.93 281.72 528.93 282Z" fill="#364FAB"/>
<path d="M539.44 361C539.44 361.14 438.8 361.26 314.68 361.26C190.56 361.26 89.8999 361.12 89.8999 361C89.8999 360.88 190.52 360.74 314.68 360.74C438.84 360.74 539.44 360.84 539.44 361Z" fill="#30303F"/>
<path d="M73.0701 272.83C66.0709 265.829 57.3706 260.769 47.824 258.148C38.2774 255.526 28.2131 255.434 18.6201 257.88C34.8734 268.955 54.0531 274.945 73.7201 275.09" fill="#364FAB"/>
<path d="M54.6001 207.43C56.8701 191.38 50.6001 173.33 38.6001 161.67C38.2101 177.57 44.9201 195.46 54.6001 207.43Z" fill="#364FAB"/>
<path d="M64.2104 237.74C55.5329 221.257 41.7182 208.054 24.8604 200.13C27.4954 209.368 32.5436 217.737 39.486 224.377C46.4283 231.017 55.0141 235.688 64.3603 237.91" fill="#364FAB"/>
<path d="M66.2002 243.58C56.5102 243.86 46.7002 243.52 37.3302 241.04C27.9602 238.56 19.0002 233.79 12.7402 226.37C31.7242 226.429 50.2687 232.089 66.0502 242.64" fill="#364FAB"/>
<path d="M61.2803 224.32C66.2003 205.88 74.2803 193.13 88.81 182.8C89.921 191.866 87.758 201.03 82.71 208.642C77.663 216.254 70.0634 221.814 61.2803 224.32Z" fill="#364FAB"/>
<path d="M97.86 256.12C97.897 250.741 96.342 245.471 93.392 240.973C90.442 236.475 86.228 232.95 81.28 230.84C82.09 240.36 89.57 251.37 97.86 256.12Z" fill="#364FAB"/>
<path d="M102.49 240.57C103.166 232.851 106.032 225.485 110.751 219.34C115.471 213.194 121.847 208.525 129.13 205.88C125.78 221.29 116.88 234.12 102.49 240.57Z" fill="#364FAB"/>
<path d="M95.51 268.16C98.93 263.27 104.51 260.23 110.28 258.72C116.05 257.21 122.08 257.07 128.04 256.95C123.979 261.356 119.013 264.832 113.483 267.138C107.952 269.444 101.988 270.526 96 270.31" fill="#364FAB"/>
<path d="M88.5901 307.45C99.4661 304.094 111.205 304.936 121.49 309.811C131.775 314.685 139.86 323.237 144.15 333.78C124 330 104.05 321 88.5901 307.45Z" fill="#364FAB"/>
<path d="M66.44 293.8C69.79 303.71 69.14 315.69 61.69 324.23C60.2052 319.119 59.8611 313.745 60.6819 308.487C61.5027 303.229 63.4683 298.215 66.44 293.8Z" fill="#364FAB"/>
<path d="M53.34 288.29C52.7998 294.678 50.621 300.82 47.0142 306.121C43.4074 311.421 38.4944 315.702 32.75 318.55C32.4828 318.72 32.1837 318.835 31.8708 318.887C31.558 318.938 31.2379 318.926 30.93 318.85C30.02 318.48 29.93 317.24 30.05 316.26C31.51 303.57 40.92 291.26 53.34 288.26" fill="#364FAB"/>
<path d="M44.7901 287C41.9452 290.074 38.4992 292.53 34.6658 294.217C30.8323 295.904 26.6932 296.786 22.505 296.808C18.3168 296.829 14.1688 295.99 10.3182 294.343C6.46772 292.695 2.99652 290.274 0.120117 287.23C14.3201 285.68 30.7001 284.64 44.7901 287Z" fill="#364FAB"/>
<path d="M42.6602 173.49C42.6602 173.49 42.6602 173.64 42.7902 173.91L43.2302 175.11C43.6302 176.19 44.2302 177.73 44.9402 179.71C45.6502 181.69 46.5902 184.15 47.6102 187L49.2502 191.56L51.0002 196.69C53.5202 203.88 56.3102 212.51 59.3302 222.12C62.3502 231.73 65.4002 242.37 68.4602 253.59C71.5202 264.81 74.1502 275.59 76.46 285.37C78.77 295.15 80.58 304.06 81.95 311.56C82.303 313.433 82.637 315.213 82.95 316.9C83.263 318.586 83.533 320.176 83.76 321.67C84.27 324.67 84.71 327.22 85.01 329.33C85.31 331.44 85.58 333.04 85.75 334.18C85.843 334.706 85.913 335.126 85.96 335.44C85.979 335.585 86.009 335.729 86.05 335.87C86.063 335.723 86.063 335.576 86.05 335.43C86.05 335.12 85.96 334.7 85.89 334.17C85.74 333.03 85.53 331.39 85.25 329.3C84.97 327.21 84.58 324.61 84.09 321.62C83.85 320.13 83.59 318.53 83.32 316.84C83.05 315.15 82.69 313.36 82.32 311.49C80.99 303.98 79.13 295.1 76.94 285.26C74.7502 275.42 72.0002 264.68 69.0002 253.44C66.0002 242.2 62.8202 231.6 59.8302 222C56.8402 212.4 53.9502 203.77 51.3902 196.6C50.7235 194.8 50.1202 193.09 49.5802 191.47L47.8902 186.92C46.8902 184.08 45.8902 181.64 45.1402 179.66C44.3902 177.68 43.7502 176.17 43.3302 175.1C43.1202 174.6 42.9602 174.21 42.8502 173.92C42.7982 173.772 42.7346 173.628 42.6602 173.49Z" fill="#263238"/>
<path d="M120.66 214.11C120.66 214.11 120.57 214.18 120.41 214.34L119.73 215.05C119.14 215.68 118.28 216.63 117.21 217.88C114.165 221.385 111.371 225.101 108.85 229C105.086 234.803 102.144 241.099 100.11 247.71C97.7601 255.15 96.3101 263.61 94.8601 272.46C91.9801 290.16 88.4301 306.02 85.8601 317.46C84.5701 323.17 83.5201 327.8 82.7801 331.04C82.4301 332.61 82.1601 333.85 81.9701 334.73C81.8801 335.13 81.8201 335.45 81.7701 335.73C81.7521 335.839 81.7521 335.951 81.7701 336.06C81.7701 336.06 81.7701 335.95 81.8701 335.74C81.9701 335.53 82.0201 335.18 82.1201 334.79L83.0401 331.12C83.8101 327.88 84.9201 323.27 86.2801 317.57C88.9401 306.12 92.5501 290.27 95.4401 272.57C96.8901 263.72 98.3201 255.28 100.62 247.87C102.624 241.295 105.513 235.024 109.21 229.23C111.702 225.319 114.441 221.572 117.41 218.01C118.41 216.75 119.29 215.78 119.85 215.13L120.49 214.38L120.66 214.11Z" fill="#263238"/>
<path d="M40.5498 286.4C40.7144 286.455 40.8863 286.485 41.0598 286.49L42.5298 286.66L43.5898 286.76L44.8498 286.95C45.7498 287.08 46.7798 287.22 47.8498 287.46L49.6198 287.82L51.5098 288.29C52.8198 288.59 54.1798 289.07 55.6298 289.51C58.7321 290.6 61.7418 291.937 64.6298 293.51C67.4895 295.114 70.1886 296.989 72.6898 299.11C73.7751 300.051 74.8067 301.053 75.7798 302.11C76.649 303.002 77.467 303.944 78.23 304.93C78.877 305.731 79.481 306.565 80.04 307.43C80.498 308.067 80.913 308.736 81.28 309.43L82.03 310.7C82.21 310.99 82.31 311.14 82.33 311.13C82.289 310.963 82.222 310.804 82.13 310.66L81.46 309.33C81.12 308.635 80.729 307.966 80.29 307.33C79.754 306.443 79.166 305.588 78.53 304.77C77.785 303.753 76.977 302.784 76.11 301.87C75.1336 300.816 74.1021 299.814 73.0198 298.87C70.5253 296.644 67.8114 294.677 64.9198 293C62.0065 291.408 58.962 290.07 55.8198 289C54.3598 288.58 52.9898 288.11 51.6598 287.83L49.7498 287.38L47.9998 287.09C46.8698 286.86 45.8298 286.75 44.9198 286.65L43.6598 286.5L42.5898 286.45L41.1098 286.39C40.9237 286.365 40.7349 286.369 40.5498 286.4Z" fill="#263238"/>
<path d="M36.5 214.45C36.7978 214.817 37.1329 215.152 37.5 215.45L40.45 218C42.93 220.12 46.39 223 50.22 226.21C54.05 229.42 57.56 232.21 60.1 234.29L63.1 236.7C63.4619 237.006 63.8501 237.281 64.26 237.52C63.9598 237.155 63.6249 236.82 63.26 236.52L60.34 234C57.86 231.88 54.41 229 50.57 225.8C46.73 222.6 43.24 219.8 40.7 217.72L37.7 215.31C37.3317 214.981 36.9294 214.693 36.5 214.45Z" fill="#263238"/>
<path d="M33 233.23C33 233.38 40.42 235.7 49.65 238.43C58.88 241.16 66.42 243.26 66.46 243.12C66.5 242.98 59.05 240.64 49.81 237.91C40.57 235.18 33.06 233.09 33 233.23Z" fill="#263238"/>
<path d="M60.54 225.75C60.8367 225.424 61.095 225.065 61.31 224.68L63.31 221.68C64.97 219.16 67.31 215.68 70.14 212.05C72.97 208.42 75.64 205.2 77.62 202.92L79.98 200.23C80.293 199.928 80.571 199.593 80.81 199.23C80.445 199.485 80.11 199.78 79.81 200.11C79.2 200.71 78.35 201.59 77.32 202.7C75.25 204.91 72.5 208.08 69.69 211.75C66.88 215.42 64.55 218.92 62.96 221.5C62.17 222.79 61.55 223.85 61.14 224.59C60.9047 224.957 60.7039 225.346 60.54 225.75Z" fill="#263238"/>
<path d="M86.4299 236.18C86.9519 237.176 87.5359 238.138 88.1799 239.06C89.2999 240.81 90.8099 243.24 92.3699 245.99C93.9299 248.74 95.2599 251.28 96.1899 253.14C96.6499 254.173 97.1779 255.175 97.7699 256.14C97.4639 255.055 97.0519 254.003 96.5399 253C95.6899 251.1 94.4199 248.52 92.8399 245.75C91.2599 242.98 89.6999 240.57 88.4999 238.87C87.8979 237.909 87.2039 237.008 86.4299 236.18Z" fill="#263238"/>
<path d="M95.29 268.67C95.29 268.74 96.75 268.05 99.08 267C101.41 265.95 104.66 264.58 108.33 263.3C112 262.02 115.4 261.05 117.88 260.42C120.36 259.79 121.88 259.42 121.88 259.37C121.507 259.355 121.133 259.392 120.77 259.48C120.06 259.59 119.04 259.78 117.77 260.05C111.236 261.48 104.9 263.696 98.9 266.65C97.75 267.22 96.83 267.71 96.21 268.07C95.879 268.23 95.57 268.432 95.29 268.67Z" fill="#263238"/>
<path d="M88.3201 307.51C88.3201 307.51 88.4701 307.59 88.7801 307.67L90.1201 308.01L95.1201 309.16C100.587 310.304 105.991 311.729 111.31 313.43C116.606 315.2 121.677 317.583 126.42 320.53C128.23 321.68 129.64 322.7 130.59 323.43C131.068 323.828 131.569 324.199 132.09 324.54C132.09 324.54 131.98 324.4 131.75 324.18C131.52 323.96 131.18 323.64 130.75 323.26C129.446 322.167 128.08 321.148 126.66 320.21C121.944 317.145 116.857 314.696 111.52 312.92C106.181 311.203 100.741 309.821 95.2301 308.78L90.2301 307.78C89.6001 307.65 88.9621 307.559 88.3201 307.51Z" fill="#263238"/>
<path d="M63.1005 317.09C63.2505 317.09 64.1005 311.88 65.1005 305.41C66.1005 298.94 66.7005 293.67 66.5505 293.65C66.4005 293.63 65.5505 298.86 64.5505 305.33C63.5505 311.8 63.0005 317.07 63.1005 317.09Z" fill="#263238"/>
<path d="M36.8398 307.56C37.6911 306.677 38.4829 305.738 39.2098 304.75C40.6298 302.98 42.5898 300.55 44.8198 297.9C47.0498 295.25 49.0998 292.9 50.5998 291.2C51.4588 290.312 52.2604 289.37 52.9998 288.38C52.7185 288.561 52.4628 288.78 52.2398 289.03C51.7798 289.46 51.1398 290.12 50.3498 290.94C48.7798 292.58 46.6698 294.94 44.4398 297.55C42.2098 300.16 40.2898 302.68 38.9498 304.55C38.2698 305.47 37.7398 306.22 37.3898 306.74C37.1702 306.987 36.9852 307.263 36.8398 307.56Z" fill="#263238"/>
<path d="M106.33 331.91V344.88H103.08L91.55 381.28H65.9805L54.8105 345.24L50.4805 344.88V331.91H106.33Z" fill="#364FAB"/>
<path opacity="0.3" d="M106.33 331.91V344.88H103.08L91.55 381.28H65.9805L54.8105 345.24L50.4805 344.88V331.91H106.33Z" fill="black"/>
<path d="M52.6396 345.24C52.6396 345.39 63.9396 345.51 77.86 345.51C91.78 345.51 103.08 345.39 103.08 345.24C103.08 345.09 91.79 344.97 77.86 344.97C63.9296 344.97 52.6396 345.09 52.6396 345.24Z" fill="#263238"/>
<path d="M34.25 261.79C34.7832 261.983 35.3318 262.13 35.89 262.23L40.38 263.32C44.16 264.25 49.38 265.67 54.99 267.57C60.6 269.47 65.63 271.47 69.21 273.01L73.44 274.86C73.9457 275.114 74.4706 275.328 75.01 275.5C74.5413 275.182 74.0461 274.904 73.53 274.67C72.53 274.17 71.14 273.48 69.36 272.67C64.7281 270.561 59.992 268.688 55.17 267.06C50.3444 265.437 45.4378 264.065 40.47 262.95C38.56 262.53 37.01 262.22 35.93 262.04C35.3785 261.907 34.8163 261.823 34.25 261.79Z" fill="#263238"/>
<path d="M61.1299 365.45C61.1299 365.6 69.0599 365.72 78.83 365.72C88.6 365.72 96.52 365.6 96.52 365.45C96.52 365.3 88.6 365.18 78.83 365.18C69.0599 365.18 61.1299 365.3 61.1299 365.45Z" fill="#FAFAFA"/>
<path d="M60.1396 362.44C60.1396 362.59 68.5396 362.71 78.89 362.71C89.24 362.71 97.64 362.59 97.64 362.44C97.64 362.29 89.25 362.17 78.89 362.17C68.5296 362.17 60.1396 362.29 60.1396 362.44Z" fill="#FAFAFA"/>
<path d="M685.46 381.48C685.46 381.63 533.02 381.75 345.02 381.75C157.02 381.75 4.54004 381.63 4.54004 381.48C4.54004 381.33 157 381.22 345 381.22C533 381.22 685.46 381.34 685.46 381.48Z" fill="#263238"/>
<path d="M592.04 1.12988H324.05V167.09H549.65L563.62 199.22L576 167.09H592.04V1.12988Z" fill="#181E34"/>
<path d="M592 1.1201C592 2.7301 592.07 65.12 592.2 167.12V167.32H576L576.19 167.19C572.32 177.26 568.14 188.11 563.82 199.32L563.63 199.83L563.41 199.33C559.03 189.27 554.3 178.38 549.41 167.2L549.62 167.34H345.62H323.79V167.08C323.79 107.93 323.79 51.8 323.79 1.0801V0.850098H324.03L592.03 1.0801L324.03 1.3201L324.27 1.0801C324.27 51.77 324.27 107.9 324.27 167.08L324.01 166.82H345.59H549.59H549.74L549.8 166.96L563.8 199.1H563.39L575.81 167L575.86 166.86H592L591.8 167.06C592 65.08 592 2.7301 592 1.1201Z" fill="#364FAB"/>
<path d="M591.9 17.32C591.9 17.52 532.02 17.69 458.18 17.69C384.34 17.69 324.45 17.52 324.45 17.32C324.45 17.12 384.32 17 458.18 17C532.04 17 591.9 17.12 591.9 17.32Z" fill="#364FAB"/>
<path d="M338.29 10.0003C338.29 10.4359 338.16 10.8616 337.918 11.2236C337.676 11.5856 337.332 11.8676 336.929 12.0338C336.527 12.2 336.084 12.243 335.657 12.1573C335.23 12.0716 334.838 11.8611 334.53 11.5524C334.223 11.2437 334.014 10.8508 333.931 10.4233C333.847 9.99592 333.892 9.55331 334.06 9.15151C334.228 8.74961 334.512 8.40671 334.875 8.16621C335.238 7.92571 335.664 7.79832 336.1 7.80032C336.681 7.80302 337.238 8.03591 337.649 8.44821C338.059 8.86051 338.29 9.41861 338.29 10.0003Z" fill="#364FAB"/>
<path d="M346.24 10.0003C346.24 10.4359 346.111 10.8616 345.868 11.2236C345.626 11.5856 345.282 11.8676 344.879 12.0338C344.477 12.2 344.034 12.243 343.607 12.1573C343.18 12.0716 342.788 11.8611 342.481 11.5524C342.173 11.2437 341.965 10.8508 341.881 10.4233C341.797 9.99592 341.842 9.55331 342.01 9.15151C342.178 8.74961 342.462 8.40671 342.825 8.16621C343.188 7.92571 343.614 7.79832 344.05 7.80032C344.632 7.80302 345.189 8.03591 345.599 8.44821C346.009 8.86051 346.24 9.41861 346.24 10.0003Z" fill="#364FAB"/>
<path d="M354.19 10.0003C354.19 10.4354 354.061 10.8608 353.819 11.2225C353.578 11.5843 353.234 11.8663 352.832 12.0328C352.43 12.1993 351.988 12.2429 351.561 12.158C351.134 12.0731 350.742 11.8636 350.434 11.5559C350.127 11.2482 349.917 10.8562 349.832 10.4295C349.747 10.0027 349.791 9.56039 349.957 9.15839C350.124 8.75639 350.406 8.41279 350.768 8.17109C351.13 7.92929 351.555 7.80029 351.99 7.80029C352.574 7.80029 353.133 8.03209 353.546 8.44469C353.958 8.85719 354.19 9.41679 354.19 10.0003Z" fill="#364FAB"/>
<path d="M353.28 47L346.92 49.46L353.28 51.91V53.4L345.28 50.23V48.7L353.28 45.52V47Z" fill="#364FAB"/>
<path d="M359.9 40.65H361.46L355.54 57.53H354L359.9 40.65Z" fill="#364FAB"/>
<path d="M370 48.7V50.24L362 53.41V51.92L368.38 49.47L362 47V45.51L370 48.7Z" fill="#364FAB"/>
<path d="M372.06 54.61C372.057 54.449 372.087 54.289 372.147 54.14C372.207 53.991 372.297 53.855 372.411 53.742C372.525 53.628 372.66 53.538 372.81 53.478C372.959 53.417 373.119 53.388 373.28 53.39C373.439 53.389 373.597 53.42 373.744 53.481C373.891 53.542 374.024 53.632 374.135 53.746C374.246 53.86 374.333 53.996 374.391 54.144C374.448 54.293 374.475 54.451 374.47 54.61C374.475 54.77 374.448 54.93 374.391 55.079C374.334 55.229 374.247 55.366 374.136 55.481C374.025 55.597 373.892 55.689 373.745 55.752C373.598 55.816 373.44 55.849 373.28 55.85C373.118 55.85 372.958 55.818 372.808 55.756C372.659 55.693 372.523 55.601 372.41 55.486C372.296 55.371 372.207 55.234 372.147 55.083C372.087 54.933 372.057 54.772 372.06 54.61Z" fill="#364FAB"/>
<path d="M376.14 54.61C376.136 54.449 376.165 54.288 376.224 54.138C376.284 53.988 376.374 53.852 376.488 53.738C376.602 53.624 376.738 53.534 376.888 53.475C377.038 53.415 377.199 53.386 377.36 53.39C377.518 53.39 377.675 53.422 377.821 53.484C377.967 53.545 378.099 53.636 378.209 53.75C378.319 53.864 378.405 53.998 378.462 54.146C378.519 54.294 378.545 54.452 378.54 54.61C378.545 54.769 378.519 54.928 378.462 55.077C378.406 55.226 378.32 55.362 378.21 55.477C378.1 55.593 377.968 55.685 377.823 55.749C377.677 55.813 377.519 55.847 377.36 55.85C377.198 55.851 377.037 55.82 376.887 55.758C376.737 55.696 376.601 55.604 376.487 55.489C376.373 55.373 376.284 55.236 376.224 55.085C376.165 54.934 376.136 54.772 376.14 54.61Z" fill="#364FAB"/>
<path d="M380.21 54.61C380.206 54.449 380.235 54.288 380.295 54.138C380.355 53.988 380.444 53.852 380.559 53.738C380.673 53.624 380.809 53.534 380.959 53.475C381.109 53.415 381.269 53.386 381.43 53.39C381.589 53.39 381.746 53.422 381.891 53.484C382.037 53.545 382.169 53.636 382.279 53.75C382.389 53.864 382.475 53.998 382.532 54.146C382.589 54.294 382.616 54.452 382.61 54.61C382.616 54.769 382.589 54.928 382.533 55.077C382.476 55.226 382.39 55.362 382.28 55.477C382.17 55.593 382.039 55.685 381.893 55.749C381.747 55.813 381.59 55.847 381.43 55.85C381.268 55.851 381.107 55.82 380.957 55.758C380.807 55.696 380.671 55.604 380.557 55.489C380.444 55.373 380.354 55.236 380.295 55.085C380.235 54.934 380.206 54.772 380.21 54.61Z" fill="#364FAB"/>
<path d="M522.5 70.71C522.5 70.91 482.89 71.07 434.03 71.07C385.17 71.07 345.55 70.91 345.55 70.71C345.55 70.51 385.16 70.34 434.03 70.34C482.9 70.34 522.5 70.5 522.5 70.71Z" fill="#364FAB"/>
<path d="M551.4 71.23C551.4 71.43 547.6 71.6 542.9 71.6C538.2 71.6 534.4 71.43 534.4 71.23C534.4 71.03 538.21 70.86 542.9 70.86C547.59 70.86 551.4 71 551.4 71.23Z" fill="#364FAB"/>
<path d="M576.25 71.23C576.25 71.43 572.09 71.6 566.97 71.6C561.85 71.6 557.68 71.43 557.68 71.23C557.68 71.03 561.84 70.86 566.97 70.86C572.1 70.86 576.25 71 576.25 71.23Z" fill="#364FAB"/>
<path d="M458.23 85.62C458.23 85.82 433.05 85.98 401.99 85.98C370.93 85.98 345.76 85.82 345.76 85.62C345.76 85.42 370.93 85.25 401.99 85.25C433.05 85.25 458.23 85.41 458.23 85.62Z" fill="#364FAB"/>
<path d="M457.42 141.25C457.42 141.45 432.24 141.61 401.19 141.61C370.14 141.61 344.95 141.45 344.95 141.25C344.95 141.05 370.13 140.88 401.19 140.88C432.25 140.88 457.42 141.05 457.42 141.25Z" fill="#364FAB"/>
<path d="M499.09 85.62C499.09 85.82 492.24 85.98 483.79 85.98C475.34 85.98 468.49 85.82 468.49 85.62C468.49 85.42 475.34 85.25 483.79 85.25C492.24 85.25 499.09 85.41 499.09 85.62Z" fill="#364FAB"/>
<path d="M498.77 141.25C498.77 141.45 491.92 141.61 483.47 141.61C475.02 141.61 468.17 141.45 468.17 141.25C468.17 141.05 475.02 140.88 483.47 140.88C491.92 140.88 498.77 141.05 498.77 141.25Z" fill="#364FAB"/>
<path d="M353.14 93.2C353.14 93.4 351.44 93.57 349.34 93.57C347.24 93.57 345.55 93.4 345.55 93.2C345.55 93 347.25 92.84 349.34 92.84C351.43 92.84 353.14 93 353.14 93.2Z" fill="#364FAB"/>
<path d="M379.29 93.36C379.29 93.56 375.6 93.72 371.05 93.72C366.5 93.72 362.81 93.56 362.81 93.36C362.81 93.16 366.5 92.99 371.05 92.99C375.6 92.99 379.29 93.16 379.29 93.36Z" fill="#364FAB"/>
<path d="M396 93.36C396 93.56 392.84 93.72 388.94 93.72C385.04 93.72 381.88 93.56 381.88 93.36C381.88 93.16 385.04 92.99 388.94 92.99C392.84 92.99 396 93.16 396 93.36Z" fill="#364FAB"/>
<path d="M417.22 93.36C417.22 93.56 414 93.72 410.03 93.72C406.06 93.72 402.83 93.56 402.83 93.36C402.83 93.16 406.05 92.99 410.03 92.99C414.01 92.99 417.22 93.16 417.22 93.36Z" fill="#364FAB"/>
<path d="M435.79 93.36C435.79 93.56 432.86 93.72 429.25 93.72C425.64 93.72 422.71 93.56 422.71 93.36C422.71 93.16 425.64 92.99 429.25 92.99C432.86 92.99 435.79 93.16 435.79 93.36Z" fill="#364FAB"/>
<path d="M497.26 93.36C497.26 93.56 484.38 93.72 468.49 93.72C452.6 93.72 439.71 93.56 439.71 93.36C439.71 93.16 452.59 92.99 468.49 92.99C484.39 92.99 497.26 93.16 497.26 93.36Z" fill="#364FAB"/>
<path d="M352.09 102.88C352.09 103.08 350.63 103.25 348.82 103.25C347.01 103.25 345.55 103.08 345.55 102.88C345.55 102.68 347.01 102.51 348.82 102.51C350.63 102.51 352.09 102.68 352.09 102.88Z" fill="#364FAB"/>
<path d="M352.35 112.82C352.35 113.02 350.83 113.19 348.95 113.19C347.07 113.19 345.55 113.02 345.55 112.82C345.55 112.62 347.07 112.45 348.95 112.45C350.83 112.45 352.35 112.62 352.35 112.82Z" fill="#364FAB"/>
<path d="M352.35 124.07C352.35 124.27 350.83 124.43 348.95 124.43C347.07 124.43 345.55 124.27 345.55 124.07C345.55 123.87 347.07 123.7 348.95 123.7C350.83 123.7 352.35 123.86 352.35 124.07Z" fill="#364FAB"/>
<path d="M414.34 123.54C414.34 123.75 402.98 123.91 388.97 123.91C374.96 123.91 363.6 123.75 363.6 123.54C363.6 123.33 374.96 123.18 388.97 123.18C402.98 123.18 414.34 123.34 414.34 123.54Z" fill="#364FAB"/>
<path d="M409.9 112.82C409.9 113.02 399.06 113.19 385.7 113.19C372.34 113.19 361.51 113.02 361.51 112.82C361.51 112.62 372.34 112.45 385.7 112.45C399.06 112.45 409.9 112.62 409.9 112.82Z" fill="#364FAB"/>
<path d="M526.82 102.36C526.82 102.56 489.92 102.72 444.43 102.72C398.94 102.72 362.03 102.56 362.03 102.36C362.03 102.16 398.91 101.99 444.43 101.99C489.95 101.99 526.82 102.15 526.82 102.36Z" fill="#364FAB"/>
<path d="M551.271 299.76L571.411 279.85L535.491 218.34C531.753 214.062 527.02 210.769 521.711 208.75L509.061 203.94L477.611 198.17L455.291 207C452.544 208.08 450.233 210.04 448.719 212.573C447.204 215.106 446.572 218.069 446.921 221L452.761 270.16L456.201 334.16L537.331 320.08L529.171 296.41L529.441 259.49L551.271 299.76Z" fill="#364FAB"/>
<path d="M529.91 294.82C530.1 294.82 530.15 282.03 530.02 266.26C529.89 250.49 529.64 237.7 529.45 237.7C529.26 237.7 529.21 250.49 529.34 266.26C529.47 282.03 529.72 294.82 529.91 294.82Z" fill="#263238"/>
<path d="M526.94 304.2L477.94 284.47C476.001 283.689 474.318 282.382 473.082 280.697C471.845 279.011 471.103 277.014 470.94 274.93L467.36 227.93C467.36 227.93 467.78 207.93 455.3 206.93L448.19 209.72C439 214.64 436.73 228 438 238.32C439.77 252.98 440.51 273.73 442.5 286.46C444.13 296.87 450.38 305.1 460.28 308.71L520.66 321.78L526.94 304.2Z" fill="#364FAB"/>
<path d="M468.05 235.1C468.125 235.453 468.175 235.81 468.2 236.17C468.28 236.94 468.39 237.97 468.52 239.27C468.77 242.02 469.12 245.9 469.52 250.67C469.92 255.44 470.42 261.23 470.97 267.58C471.1 269.17 471.24 270.8 471.38 272.47C471.478 274.149 471.689 275.819 472.01 277.47C472.349 279.152 473.197 280.688 474.44 281.87C475.787 283.047 477.317 283.996 478.97 284.68C492.48 290.53 504.97 295.36 513.97 298.75L524.71 302.75L527.63 303.82C527.976 303.929 528.311 304.069 528.63 304.24C528.291 304.167 527.956 304.07 527.63 303.95L524.63 302.95C522.06 302.1 518.36 300.82 513.81 299.19C504.72 295.9 492.24 291.19 478.68 285.28C476.964 284.562 475.377 283.569 473.98 282.34C472.642 281.071 471.73 279.419 471.37 277.61C471.045 275.92 470.838 274.209 470.75 272.49C470.61 270.823 470.48 269.193 470.36 267.6C469.86 261.24 469.42 255.51 469.04 250.67C468.66 245.83 468.42 242.02 468.21 239.26C468.13 237.96 468.07 236.92 468.02 236.15C468.007 235.8 468.017 235.449 468.05 235.1Z" fill="#263238"/>
<path d="M440 260.65C440.069 260.853 440.103 261.066 440.1 261.28C440.1 261.77 440.2 262.37 440.26 263.09C440.41 264.77 440.61 267.02 440.84 269.76C441.07 272.5 441.45 275.92 441.94 279.62C442.424 283.633 443.165 287.612 444.16 291.53C444.617 293.546 445.426 295.465 446.55 297.2C447.633 298.806 448.858 300.312 450.21 301.7C452.5 304.064 455.15 306.052 458.06 307.59C460.768 308.967 463.672 309.918 466.67 310.41C466.457 310.434 466.243 310.434 466.03 310.41C465.419 310.376 464.81 310.299 464.21 310.18C461.981 309.758 459.823 309.025 457.8 308C454.813 306.493 452.091 304.51 449.74 302.13C448.347 300.727 447.088 299.197 445.98 297.56C444.808 295.769 443.961 293.785 443.48 291.7C442.482 287.754 441.754 283.745 441.3 279.7C440.85 275.98 440.55 272.62 440.3 269.8C440.05 266.98 439.99 264.69 439.93 263.11C439.93 262.38 439.93 261.78 439.93 261.28C439.927 261.068 439.951 260.856 440 260.65Z" fill="#263238"/>
<path d="M460.93 293.54C461.052 292.617 461.355 291.727 461.82 290.92C462.826 288.913 464.223 287.127 465.931 285.669C467.638 284.211 469.62 283.11 471.76 282.43C472.627 282.098 473.551 281.938 474.48 281.96C474.48 282.07 473.48 282.27 471.92 282.87C469.896 283.654 468.017 284.77 466.36 286.17C464.711 287.592 463.314 289.282 462.23 291.17C461.39 292.59 461 293.57 460.93 293.54Z" fill="#263238"/>
<path opacity="0.3" d="M512.85 298.6C507.61 295.6 502.48 293.36 497 290.87C491.52 288.38 486.15 285.18 482.57 280.35C475.8 271.23 476.57 258.07 469.65 249.07L471 267.22C471.42 272.77 470.57 278.22 474.14 282.02C477.14 285.19 483.02 287.63 487.14 289.02C495.49 291.77 504.48 295.86 512.82 298.62" fill="black"/>
<path opacity="0.3" d="M529.45 241.16L533.69 267.32L529.68 259.91L529.45 241.16Z" fill="black"/>
<path d="M466.571 225C466.2 225.08 465.82 225.11 465.441 225.09L462.341 225.17C459.731 225.24 456.131 225.37 452.161 225.65C448.191 225.93 444.611 226.32 442.011 226.65L438.941 227.01C438.568 227.075 438.189 227.101 437.811 227.09C438.162 226.945 438.532 226.85 438.911 226.81C439.631 226.66 440.671 226.48 441.911 226.28C444.501 225.88 448.091 225.44 452.071 225.15C456.051 224.86 459.671 224.79 462.291 224.82C463.601 224.82 464.661 224.87 465.391 224.91C465.786 224.897 466.182 224.927 466.571 225Z" fill="#455A64"/>
<path d="M468 250.06C468 250.2 461.58 250.85 453.65 251.5C445.72 252.15 439.26 252.58 439.25 252.43C439.24 252.28 445.66 251.64 453.6 250.98C461.54 250.32 468 249.91 468 250.06Z" fill="#455A64"/>
<path d="M470.33 276.37C470.019 276.599 469.684 276.793 469.33 276.95C468.66 277.3 467.68 277.76 466.43 278.28C459.942 280.994 453.026 282.544 446 282.86C444.65 282.92 443.56 282.92 442.81 282.86C442.421 282.882 442.031 282.851 441.65 282.77C442.032 282.694 442.421 282.657 442.81 282.66C443.56 282.66 444.64 282.57 445.98 282.46C449.444 282.216 452.886 281.729 456.28 281C459.681 280.241 463.023 279.238 466.28 278C467.53 277.52 468.54 277.12 469.28 276.83C469.612 276.637 469.964 276.483 470.33 276.37Z" fill="#455A64"/>
<path d="M487.76 289.87C485.988 290.968 484.356 292.278 482.9 293.77C481.573 295.378 480.436 297.132 479.51 299C479.576 298.375 479.759 297.768 480.05 297.21C481.29 294.418 483.393 292.098 486.05 290.59C486.566 290.237 487.148 289.992 487.76 289.87Z" fill="#455A64"/>
<path d="M505.49 307.19C506.268 303.561 508.09 300.238 510.73 297.63C510.85 297.73 509.31 299.63 507.87 302.28C506.43 304.93 505.64 307.24 505.49 307.19Z" fill="#455A64"/>
<path d="M477.55 210.3C475.279 210.972 472.964 211.48 470.62 211.82C468.314 212.322 465.975 212.657 463.62 212.82C465.889 212.141 468.205 211.633 470.55 211.3C472.856 210.797 475.196 210.463 477.55 210.3Z" fill="#455A64"/>
<path d="M524.48 212.44C521.26 212.319 518.049 212.025 514.86 211.56C511.653 211.269 508.465 210.802 505.31 210.16C508.53 210.288 511.741 210.581 514.93 211.04C518.136 211.337 521.324 211.804 524.48 212.44Z" fill="#455A64"/>
<path d="M528.48 234.26C528.278 234.29 528.072 234.29 527.87 234.26H526.11H519.64C514.18 234.26 506.64 234.26 498.31 234.51C489.98 234.76 482.45 235.07 476.99 235.36L470.53 235.7L468.78 235.77C468.575 235.801 468.366 235.801 468.16 235.77C468.36 235.722 468.564 235.691 468.77 235.68L470.52 235.5C472.04 235.36 474.24 235.19 476.97 235C482.42 234.62 489.97 234.22 498.3 234C506.63 233.78 514.18 233.8 519.65 233.9C522.38 233.95 524.59 234.01 526.11 234.08L527.87 234.16C528.076 234.174 528.28 234.208 528.48 234.26Z" fill="#455A64"/>
<path d="M529.06 261.91C529.06 262.05 516.21 263.01 500.34 264.06C484.47 265.11 471.59 265.83 471.58 265.69C471.57 265.55 484.43 264.58 500.3 263.54C516.17 262.5 529.05 261.76 529.06 261.91Z" fill="#455A64"/>
<path d="M527.69 286.26C527.347 286.45 526.985 286.604 526.61 286.72C525.9 286.99 524.87 287.34 523.61 287.72C521.04 288.56 517.45 289.61 513.44 290.58C509.43 291.55 505.76 292.24 503.09 292.65C501.75 292.87 500.67 293.02 499.92 293.1C499.53 293.165 499.135 293.192 498.74 293.18C499.112 293.045 499.498 292.951 499.89 292.9L503.02 292.29C505.67 291.78 509.32 291.03 513.32 290.07C517.32 289.11 520.91 288.12 523.5 287.37L526.57 286.48C526.933 286.361 527.309 286.287 527.69 286.26Z" fill="#455A64"/>
<path d="M548.26 242.12C545.198 243.182 542.08 244.077 538.92 244.8C535.805 245.695 532.643 246.423 529.45 246.98C532.514 245.922 535.631 245.027 538.79 244.3C541.905 243.401 545.066 242.673 548.26 242.12Z" fill="#455A64"/>
<path d="M538.45 223.43C537.12 223.933 535.733 224.269 534.32 224.43C532.932 224.768 531.508 224.936 530.08 224.93C531.416 224.434 532.805 224.098 534.22 223.93C535.605 223.592 537.025 223.424 538.45 223.43Z" fill="#455A64"/>
<path d="M468.2 229.23C468.1 229.23 467.94 227.57 467.03 225.06C465.849 221.779 463.874 218.841 461.281 216.51C458.688 214.179 455.557 212.526 452.17 211.7C449.57 211.06 447.88 211.09 447.89 210.99C448.279 210.92 448.676 210.903 449.07 210.94C450.14 210.983 451.204 211.12 452.25 211.35C455.741 212.09 458.975 213.735 461.629 216.12C464.283 218.506 466.263 221.547 467.37 224.94C467.713 225.954 467.961 226.999 468.11 228.06C468.193 228.444 468.223 228.838 468.2 229.23Z" fill="#263238"/>
<path d="M526.6 215.9C527.353 218.911 527.931 221.962 528.33 225.04C528.91 228.091 529.314 231.173 529.54 234.27C528.799 231.254 528.225 228.199 527.82 225.12C527.241 222.072 526.833 218.994 526.6 215.9Z" fill="#263238"/>
<path d="M581.24 363.29C581.24 363.29 618.92 373.71 620.43 374.29C622.7 375.09 622.32 383.4 618.79 383.29C617.12 383.23 589.85 384.29 586.4 384.09C582.95 383.89 572.56 379.78 572.56 379.78L581.24 363.29Z" fill="#364FAB"/>
<path d="M596.94 377.66C597.13 377.66 597.38 375.66 598.6 373.66C599.82 371.66 601.38 370.34 601.26 370.19C601.14 370.04 599.32 371.11 598.05 373.34C596.78 375.57 596.78 377.68 596.94 377.66Z" fill="#263238"/>
<path d="M593 375.88C593.18 375.88 593.56 374.13 594.57 372.16C595.58 370.19 596.76 368.82 596.57 368.69C595.404 369.474 594.493 370.583 593.95 371.88C593 374 592.85 375.87 593 375.88Z" fill="#263238"/>
<path d="M589.32 374.9C589.51 374.9 589.32 373 590.2 370.9C591.08 368.8 592.39 367.52 592.26 367.38C592.13 367.24 590.49 368.38 589.62 370.68C588.75 372.98 589.17 375 589.32 374.9Z" fill="#263238"/>
<path d="M590 370C590.335 369.103 590.475 368.145 590.41 367.19C590.398 366.155 590.267 365.125 590.02 364.12C589.879 363.523 589.692 362.938 589.46 362.37C589.346 362.015 589.139 361.698 588.86 361.45C588.673 361.306 588.44 361.233 588.204 361.244C587.968 361.255 587.743 361.349 587.57 361.51C587.275 361.792 587.094 362.173 587.06 362.58C587.04 362.913 587.04 363.247 587.06 363.58C587.063 364.204 587.14 364.825 587.29 365.43C587.544 366.438 587.934 367.407 588.45 368.31C588.87 369.164 589.443 369.933 590.14 370.58C590.23 370.52 589.6 369.64 588.84 368.1C588.399 367.209 588.064 366.269 587.84 365.3C587.723 364.734 587.663 364.158 587.66 363.58C587.66 363 587.66 362.28 588.01 362C588.077 361.935 588.167 361.899 588.26 361.899C588.353 361.899 588.443 361.935 588.51 362C588.702 362.18 588.844 362.408 588.92 362.66C589.147 363.2 589.338 363.754 589.49 364.32C589.755 365.281 589.922 366.266 589.99 367.26C590.06 369 589.89 370 590 370Z" fill="#263238"/>
<path d="M590 369.65C589.23 369.325 588.394 369.188 587.56 369.25C586.66 369.25 585.763 369.361 584.89 369.58C584.352 369.696 583.834 369.888 583.35 370.15C583.042 370.306 582.792 370.558 582.639 370.868C582.486 371.178 582.437 371.53 582.5 371.87C582.585 372.195 582.756 372.492 582.995 372.728C583.235 372.964 583.533 373.13 583.86 373.21C584.415 373.35 584.996 373.35 585.55 373.21C586.441 372.98 587.276 372.568 588 372C588.682 371.532 589.275 370.946 589.75 370.27C589.051 370.673 588.382 371.128 587.75 371.63C587.051 372.108 586.267 372.447 585.44 372.63C584.981 372.745 584.5 372.745 584.04 372.63C583.823 372.574 583.623 372.463 583.462 372.307C583.301 372.151 583.183 371.955 583.12 371.74C583.086 371.526 583.123 371.308 583.224 371.117C583.325 370.926 583.485 370.772 583.68 370.68C584.113 370.448 584.573 370.27 585.05 370.15C585.88 369.918 586.731 369.771 587.59 369.71C589 369.6 589.93 369.75 590 369.65Z" fill="#263238"/>
<path d="M602.73 378.07C602.91 378.07 602.73 376.44 603.47 374.67C604.21 372.9 605.47 371.86 605.31 371.72C605.15 371.58 603.68 372.46 602.89 374.43C602.1 376.4 602.57 378.13 602.73 378.07Z" fill="#263238"/>
<path d="M576.44 379.81C576.898 380.087 577.384 380.314 577.89 380.49C579.258 381.02 580.661 381.455 582.09 381.79C586.811 382.824 591.639 383.28 596.47 383.15C602.12 383.09 607.21 382.84 610.9 382.69L615.26 382.46C615.797 382.454 616.333 382.397 616.86 382.29C616.328 382.204 615.788 382.177 615.25 382.21H610.88L596.47 382.49C591.679 382.609 586.889 382.22 582.18 381.33C578.58 380.62 576.48 379.69 576.44 379.81Z" fill="#263238"/>
<path d="M575.32 380.67C575.32 380.75 576.4 380.15 578.14 379.39C580.358 378.331 582.829 377.919 585.27 378.2C587.671 378.721 589.837 380.009 591.44 381.87C592.112 382.659 592.837 383.401 593.61 384.09C593.11 383.167 592.488 382.316 591.76 381.56C591.022 380.691 590.186 379.909 589.27 379.23C588.12 378.378 586.783 377.812 585.37 377.58C582.826 377.283 580.252 377.779 578 379C577.023 379.409 576.118 379.973 575.32 380.67Z" fill="#263238"/>
<path d="M536.65 354.54C536.65 354.54 501 377.88 499.71 378.85C497.79 380.3 499.99 387.21 503.32 386.01C504.89 385.45 534.81 377.12 538.03 375.87C541.25 374.62 549.91 367.56 549.91 367.56L536.65 354.54Z" fill="#364FAB"/>
<path d="M526.06 373C526.21 373 525.58 370.91 523.67 369.19C521.76 367.47 519.67 367 519.67 367.19C519.67 367.38 521.49 368.05 523.26 369.68C525.03 371.31 525.89 373.09 526.06 373Z" fill="#263238"/>
<path d="M529.26 370.11C529.41 370.06 528.72 368.26 527.09 366.61C525.46 364.96 523.69 364.21 523.63 364.36C523.57 364.51 525.1 365.46 526.63 367.05C528.16 368.64 529.09 370.2 529.26 370.11Z" fill="#263238"/>
<path d="M532.47 368.05C532.63 368.05 532.47 366.05 530.91 364.13C529.35 362.21 527.43 361.64 527.4 361.8C527.37 361.96 529.02 362.8 530.4 364.53C531.78 366.26 532.29 368.1 532.47 368.05Z" fill="#263238"/>
<path d="M530.36 363.62C530.45 363.62 529.96 362.62 529.55 360.95C529.316 359.983 529.175 358.995 529.13 358C529.096 357.414 529.096 356.826 529.13 356.24C529.131 355.978 529.196 355.721 529.32 355.49C529.373 355.414 529.453 355.36 529.543 355.339C529.634 355.319 529.729 355.334 529.81 355.38C530.22 355.54 530.43 356.23 530.62 356.78C530.797 357.329 530.914 357.896 530.97 358.47C531.062 359.47 531.032 360.478 530.88 361.47C530.63 363.16 530.3 364.19 530.4 364.22C530.871 363.396 531.183 362.49 531.32 361.55C531.538 360.532 531.615 359.489 531.55 358.45C531.507 357.829 531.393 357.215 531.21 356.62C531.114 356.303 530.997 355.992 530.86 355.69C530.707 355.316 530.423 355.01 530.06 354.83C529.846 354.728 529.603 354.706 529.375 354.766C529.146 354.826 528.946 354.966 528.81 355.16C528.62 355.482 528.517 355.847 528.51 356.22C528.47 356.833 528.47 357.448 528.51 358.06C528.58 359.079 528.772 360.086 529.08 361.06C529.312 361.998 529.75 362.872 530.36 363.62Z" fill="#263238"/>
<path d="M530.28 363.24C530.33 363.33 531.16 362.91 532.6 362.56C533.436 362.358 534.291 362.241 535.15 362.21C535.642 362.179 536.136 362.21 536.62 362.3C536.832 362.329 537.029 362.426 537.182 362.575C537.335 362.724 537.436 362.919 537.47 363.13C537.478 363.356 537.427 363.579 537.321 363.779C537.216 363.979 537.061 364.148 536.87 364.27C536.468 364.519 536.012 364.67 535.54 364.71C534.699 364.787 533.85 364.702 533.04 364.46C532.28 364.177 531.502 363.947 530.71 363.77C531.367 364.276 532.113 364.653 532.91 364.88C533.767 365.207 534.685 365.347 535.6 365.29C536.173 365.253 536.729 365.078 537.22 364.78C537.505 364.6 537.737 364.348 537.891 364.049C538.046 363.751 538.118 363.416 538.1 363.08C538.059 362.736 537.907 362.416 537.667 362.167C537.427 361.918 537.112 361.754 536.77 361.7C536.229 361.604 535.678 361.58 535.13 361.63C534.23 361.687 533.34 361.855 532.48 362.13C531.672 362.327 530.919 362.707 530.28 363.24Z" fill="#263238"/>
<path d="M507.86 384.71C507.86 384.77 508.46 384.35 508.74 383.33C509.026 382.002 508.786 380.615 508.07 379.46C507.718 378.836 507.317 378.24 506.87 377.68C506.529 377.192 506.122 376.755 505.66 376.38C505.334 376.114 504.938 375.947 504.52 375.9C504.23 375.9 504.07 375.96 504.08 376C504.561 376.141 505.005 376.387 505.38 376.72C505.754 377.12 506.089 377.555 506.38 378.02C506.783 378.58 507.157 379.161 507.5 379.76C508.135 380.803 508.409 382.026 508.28 383.24C508.167 383.737 508.027 384.228 507.86 384.71Z" fill="#263238"/>
<path d="M520.66 375.15C520.83 375.15 520.78 373.35 519.41 371.73C518.04 370.11 516.28 369.73 516.27 369.89C516.26 370.05 517.71 370.65 518.92 372.14C520.13 373.63 520.48 375.18 520.66 375.15Z" fill="#263238"/>
<path d="M546.24 368.82C545.687 369.135 545.162 369.496 544.67 369.9C543.259 370.879 541.793 371.777 540.28 372.59C538.017 373.778 535.679 374.817 533.28 375.7C530.58 376.7 527.55 377.65 524.35 378.58C517.93 380.43 512.12 382.12 507.93 383.38L502.93 384.9C502.315 385.057 501.716 385.272 501.14 385.54C501.77 385.453 502.392 385.316 503 385.13L508 383.81C512.22 382.66 518 381.04 524.46 379.19C527.67 378.26 530.71 377.29 533.46 376.24C535.87 375.326 538.21 374.236 540.46 372.98C541.975 372.128 543.422 371.161 544.79 370.09C545.317 369.719 545.803 369.293 546.24 368.82Z" fill="#263238"/>
<path d="M547.56 369.3C546.609 368.874 545.596 368.604 544.56 368.5C542.029 368.022 539.413 368.34 537.07 369.41C535.796 370.062 534.695 371.008 533.86 372.17C533.19 373.103 532.63 374.11 532.19 375.17C531.722 376.12 531.386 377.13 531.19 378.17C531.718 377.281 532.182 376.355 532.58 375.4C533.43 373.74 534.77 371.31 537.34 370.03C539.587 369.037 542.067 368.691 544.5 369.03C546.38 369.14 547.54 369.4 547.56 369.3Z" fill="#263238"/>
<path d="M610.77 296.16C610.77 296.16 621.46 300 621.51 312C621.59 335 575.09 360.3 575.09 360.3L513.2 319.3L509.32 317.73C509.32 317.73 592.86 286.31 610.77 296.16Z" fill="#263238"/>
<path d="M544.55 340C545.121 339.69 545.66 339.324 546.16 338.91C547.16 338.18 548.62 337.08 550.4 335.71C553.94 332.98 558.76 329.09 563.95 324.64C569.14 320.19 573.7 316.01 576.95 312.92C578.57 311.38 579.87 310.11 580.75 309.22C581.234 308.785 581.676 308.307 582.07 307.79C581.541 308.166 581.043 308.584 580.58 309.04L576.65 312.59C573.33 315.59 568.72 319.72 563.54 324.16C558.36 328.6 553.6 332.54 550.13 335.37L546 338.69C545.482 339.086 544.997 339.524 544.55 340Z" fill="#455A64"/>
<path d="M593.3 304.74C591.286 304.424 589.224 304.613 587.3 305.29C584.07 306.23 581.9 307.95 582 308.07C582.1 308.19 584.36 306.8 587.48 305.89C590.6 304.98 593.3 304.94 593.3 304.74Z" fill="#455A64"/>
<path d="M588 301.12C586.525 301.641 585.247 302.605 584.34 303.88C582.69 305.88 582.25 308.03 582.41 308.05C582.57 308.07 583.27 306.19 584.83 304.28C586.39 302.37 588.06 301.29 588 301.12Z" fill="#455A64"/>
<path d="M614.17 373.87C614.17 373.8 613.43 373.65 612.57 374.35C611.567 375.296 610.936 376.569 610.79 377.94C610.575 379.299 610.77 380.692 611.35 381.94C611.79 382.88 612.27 383.33 612.35 383.28C612.43 383.23 612.1 382.7 611.79 381.78C611.389 380.587 611.269 379.317 611.44 378.07C611.58 376.832 612.088 375.665 612.9 374.72C613.53 374 614.18 374 614.17 373.87Z" fill="#263238"/>
<path d="M606.34 263.53L588.74 311C588.249 312.323 587.361 313.462 586.197 314.26C585.034 315.059 583.651 315.478 582.24 315.46L485.32 314.18V306.82L521.32 308.13L536.58 260.79C536.834 260.011 537.327 259.332 537.99 258.851C538.653 258.369 539.451 258.11 540.27 258.11L602.79 258.29C603.411 258.301 604.019 258.461 604.565 258.757C605.111 259.052 605.577 259.475 605.925 259.989C606.273 260.502 606.493 261.092 606.565 261.709C606.637 262.325 606.56 262.95 606.34 263.53Z" fill="#E0E0E0"/>
<path d="M606.34 263.53C606.34 263.53 606.34 263.53 606.34 263.38C606.393 263.237 606.433 263.09 606.46 262.94C606.604 262.352 606.604 261.738 606.46 261.15C606.258 260.371 605.814 259.677 605.192 259.166C604.571 258.656 603.803 258.356 603 258.31C602.34 258.31 601.61 258.31 600.85 258.31H574.77H556.5H546.23H540.84C539.941 258.221 539.038 258.421 538.26 258.88C537.486 259.366 536.915 260.116 536.65 260.99L521.43 308.25V308.36H521.31L485.31 307.06L485.47 306.9V314.26L485.32 314.11L546.26 314.92L572.75 315.29L578.86 315.37H581.86C582.815 315.427 583.771 315.287 584.67 314.96C585.543 314.642 586.34 314.145 587.01 313.501C587.68 312.857 588.208 312.08 588.56 311.22C589.2 309.5 589.83 307.81 590.45 306.17C595.36 293 599.33 282.36 602.07 275C603.45 271.34 604.51 268.49 605.24 266.55C605.97 264.61 606.36 263.62 606.36 263.62C606.36 263.62 606.01 264.62 605.3 266.62L602.16 275C599.44 282.37 595.51 293 590.63 306.2L588.75 311.27C588.387 312.157 587.845 312.959 587.156 313.625C586.468 314.291 585.648 314.807 584.75 315.14C583.819 315.481 582.83 315.631 581.84 315.58H578.84L572.74 315.5L546.25 315.17L485.3 314.38H485.15V306.7H485.31L521.31 308.02L521.16 308.13L536.42 260.88C536.7 259.945 537.311 259.145 538.14 258.63C538.961 258.148 539.913 257.938 540.86 258.03H546.25H556.52L574.79 258.11L600.87 258.23C601.63 258.23 602.35 258.23 603.03 258.23C603.85 258.284 604.632 258.596 605.262 259.123C605.893 259.65 606.34 260.363 606.54 261.16C606.688 261.751 606.688 262.369 606.54 262.96C606.49 263.155 606.423 263.346 606.34 263.53Z" fill="#263238"/>
<path d="M574 287C574 282.029 569.971 278 565 278C560.029 278 556 282.029 556 287C556 291.971 560.029 296 565 296C569.971 296 574 291.971 574 287Z" fill="#DAE5EF"/>
<path d="M560.077 292.4C559.974 292.4 559.881 292.364 559.798 292.292C559.726 292.219 559.69 292.126 559.69 292.013V281.957C559.69 281.843 559.726 281.75 559.798 281.678C559.881 281.606 559.974 281.57 560.077 281.57H561.748C561.913 281.57 562.036 281.616 562.119 281.709C562.212 281.792 562.269 281.859 562.289 281.91L565.012 286.799L567.735 281.91C567.766 281.859 567.818 281.792 567.89 281.709C567.972 281.616 568.101 281.57 568.277 281.57H569.932C570.045 281.57 570.138 281.606 570.211 281.678C570.293 281.75 570.334 281.843 570.334 281.957V292.013C570.334 292.126 570.293 292.219 570.211 292.292C570.138 292.364 570.045 292.4 569.932 292.4H568.091C567.977 292.4 567.879 292.364 567.797 292.292C567.725 292.219 567.689 292.126 567.689 292.013V286.211L565.94 289.445C565.899 289.538 565.837 289.62 565.755 289.692C565.672 289.765 565.559 289.801 565.414 289.801H564.61C564.465 289.801 564.352 289.765 564.269 289.692C564.187 289.62 564.12 289.538 564.068 289.445L562.32 286.211V292.013C562.32 292.126 562.284 292.219 562.212 292.292C562.14 292.364 562.047 292.4 561.933 292.4H560.077Z" fill="#364FAB"/>
<path d="M567.892 281.709C567.82 281.792 567.768 281.859 567.737 281.91L567.691 286.211V292.013C567.691 292.126 567.727 292.219 567.799 292.292C567.882 292.364 567.98 292.4 568.093 292.4H569.934C570.048 292.4 570.141 292.364 570.213 292.292C570.295 292.219 570.337 292.126 570.337 292.013V281.957C570.337 281.843 570.295 281.75 570.213 281.678C570.141 281.606 570.048 281.57 569.934 281.57H568.279C568.104 281.57 567.975 281.616 567.892 281.709Z" fill="#181E34"/>
<path d="M559.798 281.678C559.726 281.75 559.69 281.843 559.69 281.957L562.32 286.211L564.068 289.445C564.12 289.538 564.187 289.62 564.269 289.692C564.352 289.765 564.465 289.801 564.61 289.801H565.414C565.559 289.801 565.672 289.765 565.755 289.692C565.837 289.62 565.899 289.538 565.94 289.445L565.012 286.799L562.289 281.91C562.269 281.859 562.212 281.792 562.119 281.709C562.036 281.616 561.913 281.57 561.748 281.57H560.077C559.974 281.57 559.881 281.606 559.798 281.678Z" fill="#181E34"/>
<path d="M585.52 362.85C585.52 362.85 498.18 306.91 494.33 304.71C491.05 302.84 482.27 297.44 473.62 299.83C464.97 302.22 457.21 310 453.33 321.31C451.12 327.79 450.07 338.84 449.58 347.13C448.919 357.057 452.147 366.851 458.58 374.44C461.426 377.98 465.2 380.659 469.48 382.18C470.39 382.46 471.34 382.7 472.31 382.91C488.84 386.5 505.83 379.08 515.12 364.91L517.12 361.81C517.12 361.81 574.32 382.81 575.21 382.52L585.52 362.85Z" fill="#263238"/>
<path d="M498.84 307.81C498.84 307.81 498.76 307.81 498.62 307.68L498.01 307.26C497.47 306.89 496.68 306.35 495.65 305.68C492.741 303.77 489.629 302.191 486.37 300.97C484.12 300.144 481.762 299.648 479.37 299.5C476.642 299.386 473.919 299.832 471.37 300.81C468.541 301.903 465.927 303.487 463.65 305.49C462.431 306.534 461.285 307.66 460.22 308.86C459.143 310.096 458.192 311.436 457.38 312.86C455.773 315.7 454.511 318.721 453.62 321.86C452.79 324.91 452.13 327.92 451.51 330.76C450.356 335.791 449.687 340.921 449.51 346.08C449.448 349.561 449.712 353.039 450.3 356.47C450.49 357.69 450.71 358.62 450.84 359.26L450.98 359.99C450.993 360.073 450.993 360.157 450.98 360.24C450.946 360.163 450.919 360.083 450.9 360C450.9 359.81 450.78 359.57 450.71 359.28C450.54 358.65 450.29 357.73 450.07 356.51C449.386 353.076 449.051 349.582 449.07 346.08C449.204 340.899 449.85 335.744 451 330.69C451.62 327.83 452.26 324.84 453.08 321.75C453.988 318.571 455.267 315.51 456.89 312.63C457.719 311.168 458.691 309.791 459.79 308.52C460.873 307.301 462.039 306.158 463.28 305.1C465.607 303.068 468.275 301.463 471.16 300.36C473.785 299.365 476.587 298.923 479.39 299.06C481.813 299.239 484.197 299.764 486.47 300.62C489.744 301.874 492.857 303.516 495.74 305.51C496.74 306.21 497.53 306.78 498.05 307.18L498.63 307.64C498.708 307.686 498.779 307.743 498.84 307.81Z" fill="#455A64"/>
<path d="M477.35 347.06C477.506 347.142 477.666 347.216 477.83 347.28L479.26 347.84L484.8 350L505.4 357.76C514.15 361.02 524.64 364.91 536.4 369.19C548.16 373.47 561.19 378.19 575.11 382.87L575.37 382.95L575.49 382.72C577.67 378.54 579.98 374.14 582.32 369.67L585.8 363L585.94 362.74L585.69 362.59L519 320.25L499 307.61L493.56 304.21L492.14 303.35C491.982 303.248 491.818 303.154 491.65 303.07C491.65 303.07 491.8 303.19 492.11 303.4L493.5 304.32L498.88 307.81L518.81 320.61L585.39 363.12L585.28 362.71C584.18 364.82 583 367.08 581.8 369.36L574.98 382.41L575.35 382.25C561.44 377.55 548.4 372.88 536.63 368.64L505.63 357.35L484.96 349.77L479.38 347.77L477.93 347.26L477.35 347.06Z" fill="#455A64"/>
<path d="M481.87 161.47C480.232 158.529 478.931 155.412 477.99 152.18C477.051 148.921 477.235 145.442 478.51 142.3C479.32 140.51 480.6 138.94 481.24 137.08C482.11 134.52 481.75 131.5 483.34 129.31C485.81 125.88 491.11 126.68 494.94 124.89C497.94 123.49 500.01 120.48 503.14 119.47C505.88 118.59 508.87 119.47 511.51 120.57C514.15 121.67 516.74 123.14 519.59 123.51C521.639 123.625 523.692 123.625 525.74 123.51C527.817 123.424 529.847 124.14 531.41 125.51C532.85 126.96 533.15 129.65 531.59 130.98C535.18 130.37 538.59 133.98 538.51 137.59C538.43 141.2 535.72 144.43 532.41 145.95C529.1 147.47 525.33 147.56 521.7 147.27C511.43 146.47 501.11 142.57 494.12 135.01" fill="#364FAB"/>
<path d="M484.08 148.62L477.08 199.47C476.797 201.519 476.934 203.604 477.481 205.599C478.029 207.593 478.977 209.456 480.266 211.073C481.556 212.69 483.161 214.028 484.984 215.006C486.807 215.983 488.809 216.58 490.87 216.76C494.777 217.099 498.665 215.923 501.729 213.475C504.793 211.027 506.798 207.495 507.33 203.61C507.85 199.78 508.33 196.61 508.33 196.2C508.33 196.2 521.44 196.76 524.14 184.08C525.44 177.95 527.14 165.08 528.46 153.47C529.162 147.454 527.578 141.394 524.022 136.491C520.465 131.588 515.197 128.201 509.26 127L508.03 126.76C494.65 124.87 485.58 135.19 484.08 148.62Z" fill="#FFBE9D"/>
<path d="M508.45 196C502.56 194.941 497.116 192.157 492.81 188C492.81 188 494.9 197.94 507.81 199.33L508.45 196Z" fill="#EB996E"/>
<path d="M522.82 164.28C522.73 164.755 522.458 165.175 522.062 165.452C521.666 165.728 521.177 165.839 520.7 165.76C520.467 165.732 520.242 165.657 520.038 165.541C519.833 165.425 519.654 165.269 519.511 165.083C519.368 164.897 519.263 164.684 519.203 164.457C519.142 164.23 519.128 163.993 519.16 163.76C519.248 163.286 519.518 162.864 519.912 162.586C520.306 162.308 520.794 162.194 521.27 162.27C521.505 162.297 521.733 162.371 521.939 162.487C522.145 162.604 522.325 162.76 522.47 162.948C522.614 163.135 522.72 163.35 522.78 163.578C522.84 163.807 522.854 164.046 522.82 164.28Z" fill="#263238"/>
<path d="M524.54 159.16C524.27 159.35 523.1 158.06 521.14 157.68C519.18 157.3 517.56 157.98 517.4 157.68C517.32 157.55 517.63 157.17 518.4 156.84C519.344 156.43 520.392 156.322 521.4 156.53C522.419 156.728 523.347 157.246 524.05 158.01C524.56 158.61 524.68 159.08 524.54 159.16Z" fill="#263238"/>
<path d="M504.6 161.13C504.51 161.605 504.238 162.025 503.841 162.302C503.445 162.579 502.957 162.689 502.48 162.61C502.246 162.583 502.02 162.51 501.815 162.394C501.61 162.278 501.431 162.122 501.287 161.936C501.144 161.749 501.039 161.536 500.979 161.308C500.92 161.08 500.906 160.843 500.94 160.61C501.028 160.136 501.298 159.716 501.693 159.439C502.087 159.162 502.574 159.051 503.05 159.13C503.284 159.157 503.51 159.231 503.716 159.347C503.921 159.462 504.101 159.618 504.246 159.804C504.39 159.991 504.496 160.204 504.557 160.431C504.617 160.659 504.632 160.897 504.6 161.13Z" fill="#263238"/>
<path d="M505.27 155.69C504.99 155.88 503.82 154.59 501.86 154.2C499.9 153.81 498.28 154.51 498.12 154.2C498.04 154.07 498.35 153.69 499.12 153.36C500.064 152.95 501.112 152.842 502.12 153.05C503.136 153.249 504.063 153.763 504.77 154.52C505.28 155.14 505.4 155.6 505.27 155.69Z" fill="#263238"/>
<path d="M509.46 171.6C510.555 171.478 511.66 171.499 512.75 171.66C513.26 171.71 513.75 171.66 513.9 171.38C514.059 170.876 514.059 170.334 513.9 169.83C513.68 168.53 513.44 167.17 513.19 165.74C512.19 159.92 511.63 155.18 511.86 155.14C512.09 155.1 513.07 159.79 514.04 165.61C514.26 167.04 514.48 168.4 514.69 169.71C514.877 170.372 514.831 171.078 514.56 171.71C514.448 171.875 514.3 172.013 514.126 172.112C513.953 172.21 513.759 172.268 513.56 172.28C513.269 172.298 512.976 172.278 512.69 172.22C511.591 172.151 510.506 171.942 509.46 171.6Z" fill="#263238"/>
<path d="M503.44 171.8C503.76 171.8 503.34 173.97 504.86 175.8C506.38 177.63 508.68 177.89 508.63 178.19C508.63 178.33 508.05 178.5 507.09 178.34C505.843 178.105 504.717 177.44 503.91 176.46C503.158 175.514 502.8 174.314 502.91 173.11C503 172.24 503.3 171.76 503.44 171.8Z" fill="#263238"/>
<path d="M507.3 148.13C507 148.62 505.1 147.98 502.75 147.8C500.4 147.62 498.43 147.87 498.22 147.34C498.13 147.08 498.55 146.65 499.4 146.28C500.525 145.855 501.732 145.689 502.93 145.795C504.128 145.9 505.287 146.275 506.32 146.89C507.09 147.39 507.43 147.9 507.3 148.13Z" fill="#364FAB"/>
<path d="M525 153.36C524.56 153.74 523.31 153.01 521.7 152.66C520.09 152.31 518.7 152.36 518.42 151.84C518.33 151.58 518.63 151.18 519.32 150.84C520.224 150.498 521.21 150.432 522.152 150.651C523.094 150.87 523.949 151.364 524.61 152.07C525.05 152.68 525.15 153.18 525 153.36Z" fill="#364FAB"/>
<path d="M483.24 158.24C483.04 158.1 475.02 153.91 473.56 162.66C472.1 171.41 481.19 171.07 481.24 170.82C481.29 170.57 483.24 158.24 483.24 158.24Z" fill="#FFBE9D"/>
<path d="M479.12 167.06C479.12 167.06 478.95 167.14 478.68 167.21C478.29 167.308 477.878 167.25 477.53 167.05C476.66 166.55 476.13 164.96 476.35 163.37C476.455 162.617 476.725 161.897 477.14 161.26C477.267 160.998 477.455 160.771 477.688 160.597C477.921 160.423 478.193 160.308 478.48 160.26C478.663 160.244 478.846 160.292 478.997 160.396C479.149 160.5 479.259 160.653 479.31 160.83C479.39 161.1 479.31 161.26 479.31 161.28C479.31 161.3 479.52 161.17 479.51 160.8C479.498 160.574 479.41 160.359 479.26 160.19C479.048 159.968 478.757 159.838 478.45 159.83C478.079 159.841 477.716 159.947 477.398 160.138C477.079 160.328 476.815 160.598 476.63 160.92C476.131 161.615 475.812 162.422 475.7 163.27C475.46 165.04 476.09 166.84 477.29 167.42C477.515 167.526 477.761 167.581 478.01 167.581C478.259 167.581 478.505 167.526 478.73 167.42C479.07 167.27 479.15 167.08 479.12 167.06Z" fill="#EB996E"/>
<path d="M531 141.66C529.5 144.89 521.78 146.14 516.12 144.43C510.91 142.86 509.01 139.55 505.7 136.66C503.6 134.83 503.6 134.83 500.17 134.48C497.4 134.19 495.17 136.95 493.08 138.78C494.25 145.78 491.16 152.62 488.14 158.99C487.886 159.734 487.389 160.372 486.73 160.8C485.55 161.38 484.13 160.46 483.42 159.34C482.424 157.456 481.996 155.323 482.19 153.2C482.218 148.36 483.207 143.574 485.1 139.12C486.997 134.634 490.177 130.807 494.24 128.12C499.446 124.938 505.686 123.905 511.64 125.24C517.559 126.61 522.896 129.812 526.89 134.39C528.841 136.416 530.254 138.898 531 141.61" fill="#364FAB"/>
<path d="M513.24 162.8C513.32 162.8 513.24 162.05 513.64 160.8C514.151 159.001 515.241 157.419 516.74 156.3C517.837 155.489 519.119 154.962 520.47 154.769C521.821 154.575 523.199 154.72 524.48 155.19C525.992 155.744 527.305 156.737 528.25 158.04C529.27 159.431 529.819 161.111 529.819 162.835C529.819 164.56 529.27 166.239 528.25 167.63C527.305 168.934 525.992 169.926 524.48 170.48C523.198 170.951 521.82 171.095 520.468 170.9C519.117 170.704 517.836 170.175 516.74 169.36C515.24 168.246 514.15 166.668 513.64 164.87C513.29 163.59 513.32 162.87 513.24 162.87C513.217 163.053 513.217 163.238 513.24 163.42C513.237 163.942 513.297 164.463 513.42 164.97C513.842 166.889 514.925 168.599 516.48 169.8C517.402 170.504 518.455 171.017 519.578 171.308C520.701 171.599 521.871 171.663 523.019 171.495C524.167 171.328 525.27 170.932 526.263 170.332C527.256 169.731 528.118 168.939 528.8 168C529.922 166.497 530.529 164.671 530.529 162.795C530.529 160.919 529.922 159.093 528.8 157.59C528.112 156.652 527.243 155.861 526.244 155.265C525.245 154.668 524.136 154.279 522.984 154.118C521.831 153.958 520.658 154.03 519.534 154.331C518.41 154.632 517.358 155.155 516.44 155.87C514.886 157.068 513.803 158.774 513.38 160.69C513.257 161.201 513.197 161.725 513.2 162.25C513.188 162.434 513.201 162.62 513.24 162.8Z" fill="#263238"/>
<path d="M492.49 159.18C492.57 159.18 492.49 158.43 492.89 157.18C493.399 155.379 494.489 153.797 495.99 152.68C497.087 151.867 498.368 151.34 499.72 151.146C501.071 150.952 502.449 151.098 503.73 151.57C505.241 152.12 506.554 153.109 507.5 154.41C508.521 155.802 509.071 157.484 509.071 159.21C509.071 160.936 508.521 162.618 507.5 164.01C506.558 165.314 505.244 166.304 503.73 166.85C502.449 167.322 501.071 167.468 499.72 167.274C498.368 167.081 497.087 166.553 495.99 165.74C494.489 164.623 493.399 163.041 492.89 161.24C492.54 159.97 492.57 159.24 492.49 159.24C492.467 159.419 492.467 159.601 492.49 159.78C492.487 160.305 492.547 160.829 492.67 161.34C493.092 163.259 494.175 164.969 495.73 166.17C496.65 166.884 497.703 167.406 498.827 167.706C499.952 168.007 501.125 168.079 502.278 167.919C503.431 167.758 504.54 167.369 505.54 166.773C506.54 166.177 507.41 165.388 508.1 164.45C509.22 162.944 509.825 161.117 509.825 159.24C509.825 157.363 509.22 155.536 508.1 154.03C507.412 153.092 506.543 152.301 505.544 151.705C504.545 151.108 503.436 150.719 502.284 150.558C501.131 150.398 499.958 150.47 498.834 150.771C497.71 151.072 496.658 151.595 495.74 152.31C494.187 153.513 493.105 155.222 492.68 157.14C492.557 157.651 492.497 158.175 492.5 158.7C492.478 158.859 492.474 159.02 492.49 159.18Z" fill="#263238"/>
<path d="M509.59 159.48C509.68 159.65 510.79 159.13 512.08 159.53C513.37 159.93 514.02 160.96 514.19 160.86C514.36 160.76 514.19 160.49 513.94 160.05C513.542 159.474 512.959 159.051 512.289 158.849C511.619 158.648 510.9 158.68 510.25 158.94C509.76 159.14 509.54 159.4 509.59 159.48Z" fill="#263238"/>
<path d="M480.74 156.94C480.74 157.14 483.53 157.25 486.97 157.21C490.41 157.17 493.19 156.96 493.19 156.76C493.19 156.56 490.4 156.45 486.96 156.5C483.52 156.55 480.74 156.74 480.74 156.94Z" fill="#263238"/>
<path d="M535.13 133.31C535.129 133.592 535.082 133.873 534.99 134.14C534.742 134.879 534.287 135.531 533.68 136.02C532.783 136.756 531.686 137.206 530.53 137.31C529.137 137.422 527.734 137.348 526.36 137.09C523.863 136.721 521.386 136.224 518.94 135.6C518 135.35 517.24 135.14 516.73 134.98L516.13 134.79L515.93 134.71C515.93 134.71 516.01 134.71 516.14 134.71L516.75 134.86L518.97 135.41C520.85 135.86 523.47 136.41 526.39 136.85C527.748 137.105 529.133 137.183 530.51 137.08C531.633 136.988 532.705 136.567 533.59 135.87C534.186 135.405 534.643 134.786 534.91 134.08C535.09 133.61 535.1 133.3 535.13 133.31Z" fill="white"/>
<path d="M537.07 135.29C536.947 136.124 536.694 136.934 536.32 137.69C535.453 139.547 534.049 141.1 532.29 142.15C530.53 143.2 528.496 143.698 526.45 143.58C525.611 143.552 524.781 143.393 523.99 143.11C524.213 143.136 524.434 143.18 524.65 143.24C525.248 143.351 525.853 143.418 526.46 143.44C528.47 143.513 530.457 143.003 532.182 141.97C533.907 140.937 535.296 139.426 536.18 137.62C536.46 137.079 536.687 136.514 536.86 135.93C536.916 135.712 536.986 135.498 537.07 135.29Z" fill="white"/>
</svg>
