<svg width="600" height="600" viewBox="0 0 600 600" fill="none" xmlns="http://www.w3.org/2000/svg">
<rect width="600" height="600" rx="300" fill="#181E34"/>
<path d="M134.897 480C131.458 480 128.363 478.8 125.611 476.4C123.204 474 122 470.914 122 467.143V132.857C122 129.086 123.204 126 125.611 123.6C128.363 121.2 131.458 120 134.897 120H190.612C196.115 120 200.242 121.543 202.993 124.629C206.089 127.371 207.98 129.6 208.668 131.314L299.463 293.829L390.258 131.314C391.29 129.6 393.009 127.371 395.417 124.629C398.168 121.543 402.468 120 408.314 120H463.513C467.296 120 470.392 121.2 472.799 123.6C475.55 126 476.926 129.086 476.926 132.857V467.143C476.926 470.914 475.55 474 472.799 476.4C470.392 478.8 467.296 480 463.513 480H402.124C398.341 480 395.073 478.8 392.322 476.4C389.914 474 388.711 470.914 388.711 467.143V274.286L330.416 381.771C329.04 384.857 326.977 387.6 324.225 390C321.474 392.4 317.691 393.6 312.876 393.6H286.05C281.236 393.6 277.452 392.4 274.701 390C271.95 387.6 269.714 384.857 267.994 381.771L209.7 274.286V467.143C209.7 470.914 208.496 474 206.089 476.4C203.681 478.8 200.586 480 196.803 480H134.897Z" fill="#364FAB"/>
<path d="M395.491 124.629C393.083 127.371 391.364 129.6 390.332 131.314L388.784 274.286V467.143C388.784 470.914 389.988 474 392.395 476.4C395.146 478.8 398.414 480 402.197 480H463.587C467.37 480 470.465 478.8 472.873 476.4C475.624 474 477 470.914 477 467.143V132.857C477 129.086 475.624 126 472.873 123.6C470.465 121.2 467.37 120 463.587 120H408.388C402.541 120 398.242 121.543 395.491 124.629Z" fill="#364FAB"/>
<path d="M125.611 123.6C123.204 126 122 129.086 122 132.857L209.7 274.286L267.994 381.771C269.714 384.857 271.95 387.6 274.701 390C277.452 392.4 281.236 393.6 286.05 393.6H312.876C317.691 393.6 321.474 392.4 324.225 390C326.977 387.6 329.04 384.857 330.416 381.771L299.463 293.829L208.668 131.314C207.98 129.6 206.089 127.371 202.993 124.629C200.242 121.543 196.115 120 190.612 120H134.897C131.458 120 128.363 121.2 125.611 123.6Z" fill="#364FAB"/>
</svg>
